<svg width="99" height="27" viewBox="0 0 99 27" fill="none" xmlns="http://www.w3.org/2000/svg">
<path d="M2.21484 13.9062L6.11719 9.10742L0.474609 7.52539L1.56445 4.32617L7.11914 6.57617L6.73242 0.40625H10.3008L9.89648 6.68164L15.3281 4.48438L16.4004 7.73633L10.6699 9.31836L14.4492 13.9941L11.5664 15.998L8.33203 10.8477L5.09766 15.8398L2.21484 13.9062Z" fill="#FB9300"/>
<path d="M36.2988 16.2266V20.4805H17.877L17.5781 17.1406L28.0547 0.40625H32.3965L27.6855 8.21094L22.9219 16.2266H36.2988ZM33.5566 0.40625V26H28.0723V0.40625H33.5566ZM56.4961 10.918V15.4707C56.4961 17.3457 56.2852 18.9688 55.8633 20.3398C55.4531 21.7109 54.8555 22.8418 54.0703 23.7324C53.2969 24.623 52.3711 25.2852 51.293 25.7188C50.2266 26.1406 49.043 26.3516 47.7422 26.3516C46.6992 26.3516 45.7266 26.2168 44.8242 25.9473C43.9219 25.6777 43.1074 25.2617 42.3809 24.6992C41.666 24.125 41.0508 23.4102 40.5352 22.5547C40.0195 21.6992 39.6211 20.6797 39.3398 19.4961C39.0703 18.3125 38.9355 16.9707 38.9355 15.4707V10.918C38.9355 9.01953 39.1406 7.39062 39.5508 6.03125C39.9727 4.67188 40.5762 3.54688 41.3613 2.65625C42.1465 1.76562 43.0723 1.10938 44.1387 0.6875C45.2168 0.265625 46.4062 0.0546875 47.707 0.0546875C48.75 0.0546875 49.7168 0.189453 50.6074 0.458984C51.5098 0.728516 52.3242 1.14453 53.0508 1.70703C53.7773 2.26953 54.3926 2.97852 54.8965 3.83398C55.4121 4.68945 55.8047 5.70898 56.0742 6.89258C56.3555 8.06445 56.4961 9.40625 56.4961 10.918ZM51.0117 16.1562V10.1973C51.0117 9.31836 50.959 8.55664 50.8535 7.91211C50.7598 7.25586 50.6191 6.69922 50.4316 6.24219C50.2559 5.78516 50.0332 5.41602 49.7637 5.13477C49.4941 4.85352 49.1836 4.64844 48.832 4.51953C48.4922 4.37891 48.1172 4.30859 47.707 4.30859C47.1914 4.30859 46.7285 4.41406 46.3184 4.625C45.9082 4.83594 45.5625 5.16992 45.2812 5.62695C45 6.07227 44.7832 6.67578 44.6309 7.4375C44.4902 8.1875 44.4199 9.10742 44.4199 10.1973V16.1562C44.4199 17.0352 44.4668 17.8027 44.5605 18.459C44.666 19.1152 44.8066 19.6777 44.9824 20.1465C45.1699 20.6035 45.3984 20.9785 45.668 21.2715C45.9375 21.5527 46.248 21.7578 46.5996 21.8867C46.9512 22.0156 47.332 22.0801 47.7422 22.0801C48.2578 22.0801 48.7148 21.9805 49.1133 21.7812C49.5117 21.5703 49.8516 21.2363 50.1328 20.7793C50.4258 20.3105 50.6426 19.6953 50.7832 18.9336C50.9355 18.1719 51.0117 17.2461 51.0117 16.1562ZM72.5098 0.388672V26H67.0078V6.64648L61.0664 8.45703V4.20312L71.9648 0.388672H72.5098ZM98.0508 10.918V15.4707C98.0508 17.3457 97.8398 18.9688 97.418 20.3398C97.0078 21.7109 96.4102 22.8418 95.625 23.7324C94.8516 24.623 93.9258 25.2852 92.8477 25.7188C91.7812 26.1406 90.5977 26.3516 89.2969 26.3516C88.2539 26.3516 87.2812 26.2168 86.3789 25.9473C85.4766 25.6777 84.6621 25.2617 83.9355 24.6992C83.2207 24.125 82.6055 23.4102 82.0898 22.5547C81.5742 21.6992 81.1758 20.6797 80.8945 19.4961C80.625 18.3125 80.4902 16.9707 80.4902 15.4707V10.918C80.4902 9.01953 80.6953 7.39062 81.1055 6.03125C81.5273 4.67188 82.1309 3.54688 82.916 2.65625C83.7012 1.76562 84.627 1.10938 85.6934 0.6875C86.7715 0.265625 87.9609 0.0546875 89.2617 0.0546875C90.3047 0.0546875 91.2715 0.189453 92.1621 0.458984C93.0645 0.728516 93.8789 1.14453 94.6055 1.70703C95.332 2.26953 95.9473 2.97852 96.4512 3.83398C96.9668 4.68945 97.3594 5.70898 97.6289 6.89258C97.9102 8.06445 98.0508 9.40625 98.0508 10.918ZM92.5664 16.1562V10.1973C92.5664 9.31836 92.5137 8.55664 92.4082 7.91211C92.3145 7.25586 92.1738 6.69922 91.9863 6.24219C91.8105 5.78516 91.5879 5.41602 91.3184 5.13477C91.0488 4.85352 90.7383 4.64844 90.3867 4.51953C90.0469 4.37891 89.6719 4.30859 89.2617 4.30859C88.7461 4.30859 88.2832 4.41406 87.873 4.625C87.4629 4.83594 87.1172 5.16992 86.8359 5.62695C86.5547 6.07227 86.3379 6.67578 86.1855 7.4375C86.0449 8.1875 85.9746 9.10742 85.9746 10.1973V16.1562C85.9746 17.0352 86.0215 17.8027 86.1152 18.459C86.2207 19.1152 86.3613 19.6777 86.5371 20.1465C86.7246 20.6035 86.9531 20.9785 87.2227 21.2715C87.4922 21.5527 87.8027 21.7578 88.1543 21.8867C88.5059 22.0156 88.8867 22.0801 89.2969 22.0801C89.8125 22.0801 90.2695 21.9805 90.668 21.7812C91.0664 21.5703 91.4062 21.2363 91.6875 20.7793C91.9805 20.3105 92.1973 19.6953 92.3379 18.9336C92.4902 18.1719 92.5664 17.2461 92.5664 16.1562Z" fill="white"/>
</svg>
