<svg width="22" height="22" viewBox="0 0 22 22" fill="none" xmlns="http://www.w3.org/2000/svg">
<path d="M9.97992 3.18612C11.2838 3.18498 12.5587 3.57055 13.6435 4.29409C14.7283 5.01767 15.5741 6.04673 16.0739 7.25109C16.5737 8.45546 16.7051 9.78101 16.4515 11.0601C16.1978 12.3391 15.5705 13.5142 14.6489 14.4367C13.7272 15.3591 12.5527 15.9875 11.2739 16.2424C9.99508 16.4972 8.66941 16.367 7.46459 15.8683C6.25977 15.3695 5.22993 14.5247 4.50536 13.4405C3.78084 12.3565 3.39409 11.0819 3.39405 9.778C3.40202 8.03323 4.09825 6.36209 5.33144 5.12776C6.56464 3.89344 8.23515 3.19568 9.97992 3.18612ZM9.9796 1.73334C8.38856 1.73334 6.83325 2.20514 5.51035 3.08908C4.18745 3.97301 3.15637 5.22938 2.54751 6.69931C1.93864 8.16924 1.77933 9.78671 2.08973 11.3472C2.40013 12.9076 3.16629 14.341 4.29132 15.4661C5.41636 16.5911 6.84974 17.3573 8.41021 17.6677C9.97068 17.9781 11.5881 17.8187 13.0581 17.2099C14.528 16.601 15.7844 15.5699 16.6683 14.247C17.5522 12.9241 18.024 11.3688 18.024 9.77779C18.024 7.64427 17.1765 5.59813 15.6679 4.08951C14.1593 2.58088 12.1131 1.73334 9.9796 1.73334Z" fill="#343F56" stroke="#343F56" stroke-width="0.2"/>
<path d="M21.4602 20.2734L21.4602 20.2734L16.9563 15.739L16.8858 15.668L16.8149 15.7385L15.9471 16.6002L15.8761 16.6706L15.9466 16.7416L20.4505 21.276C20.4505 21.276 20.4505 21.276 20.4505 21.276C20.5163 21.3423 20.5946 21.395 20.6808 21.4311C20.767 21.4671 20.8594 21.4859 20.9528 21.4862C21.0463 21.4865 21.1388 21.4684 21.2253 21.433C21.3117 21.3975 21.3904 21.3454 21.4566 21.2796C21.5229 21.2137 21.5756 21.1355 21.6117 21.0493C21.6477 20.9631 21.6665 20.8707 21.6668 20.7772C21.6671 20.6838 21.6491 20.5912 21.6136 20.5048C21.5782 20.4183 21.526 20.3397 21.4602 20.2734Z" fill="#343F56" stroke="#343F56" stroke-width="0.2"/>
</svg>
