<svg width="20" height="20" viewBox="0 0 20 20" fill="none" xmlns="http://www.w3.org/2000/svg">
<path d="M7.00526 2.78875C5.93379 3.08404 4.86961 3.40514 3.81363 3.75175C3.71721 3.78298 3.63149 3.84067 3.56625 3.91824C3.50102 3.99581 3.45887 4.09015 3.44463 4.1905C2.82138 8.86713 4.26138 12.2793 5.97926 14.527C6.70659 15.4882 7.57384 16.335 8.55213 17.0391C8.94138 17.3136 9.28563 17.5116 9.55676 17.6388C9.69176 17.7029 9.80201 17.7456 9.88638 17.7715C9.92328 17.7844 9.96133 17.7939 10 17.7996C10.0382 17.7934 10.0759 17.784 10.1125 17.7715C10.198 17.7456 10.3083 17.7029 10.4433 17.6388C10.7133 17.5116 11.0586 17.3125 11.4479 17.0391C12.4262 16.335 13.2934 15.4882 14.0208 14.527C15.7386 12.2804 17.1786 8.86713 16.5554 4.1905C16.5413 4.0901 16.4992 3.99571 16.4339 3.91811C16.3687 3.84052 16.2829 3.78287 16.1864 3.75175C15.454 3.51213 14.2176 3.12175 12.9948 2.78987C11.746 2.45125 10.5974 2.20038 10 2.20038C9.40376 2.20038 8.25401 2.45125 7.00526 2.78987V2.78875ZM6.70601 1.63C7.92663 1.29813 9.22376 1 10 1C10.7763 1 12.0734 1.29813 13.294 1.63C14.5428 1.9675 15.8016 2.36687 16.5419 2.60875C16.8514 2.71096 17.1258 2.8984 17.3335 3.14954C17.5413 3.40068 17.674 3.70533 17.7164 4.0285C18.3869 9.06513 16.831 12.7979 14.9433 15.2673C14.1428 16.3236 13.1882 17.2538 12.1116 18.0269C11.7394 18.2944 11.3449 18.5296 10.9326 18.73C10.6176 18.8785 10.279 19 10 19C9.72101 19 9.38351 18.8785 9.06738 18.73C8.65508 18.5296 8.26065 18.2944 7.88838 18.0269C6.81179 17.2538 5.85729 16.3236 5.05676 15.2673C3.16901 12.7979 1.61313 9.06513 2.28363 4.0285C2.32603 3.70533 2.45873 3.40068 2.66649 3.14954C2.87425 2.8984 3.14863 2.71096 3.45813 2.60875C4.53272 2.25641 5.61566 1.93007 6.70601 1.63Z" fill="#009E36"/>
<path d="M13.211 6.78925C13.2634 6.8415 13.3049 6.90357 13.3333 6.97191C13.3616 7.04025 13.3762 7.11351 13.3762 7.1875C13.3762 7.26149 13.3616 7.33475 13.3333 7.40309C13.3049 7.47142 13.2634 7.5335 13.211 7.58575L9.83597 10.9607C9.78372 11.0131 9.72165 11.0547 9.65331 11.083C9.58497 11.1114 9.51171 11.126 9.43772 11.126C9.36373 11.126 9.29047 11.1114 9.22213 11.083C9.1538 11.0547 9.09172 11.0131 9.03947 10.9607L7.35197 9.27325C7.29967 9.22095 7.25819 9.15886 7.22988 9.09053C7.20158 9.0222 7.18701 8.94896 7.18701 8.875C7.18701 8.80104 7.20158 8.7278 7.22988 8.65947C7.25819 8.59113 7.29967 8.52905 7.35197 8.47675C7.40427 8.42445 7.46636 8.38296 7.53469 8.35466C7.60302 8.32636 7.67626 8.31179 7.75022 8.31179C7.82418 8.31179 7.89742 8.32636 7.96575 8.35466C8.03409 8.38296 8.09617 8.42445 8.14847 8.47675L9.43772 9.76712L12.4145 6.78925C12.4667 6.73686 12.5288 6.6953 12.5971 6.66695C12.6655 6.63859 12.7387 6.62399 12.8127 6.62399C12.8867 6.62399 12.96 6.63859 13.0283 6.66695C13.0966 6.6953 13.1587 6.73686 13.211 6.78925Z" fill="#009E36"/>
</svg>
