<svg width="329" height="41" viewBox="0 0 329 41" fill="none" xmlns="http://www.w3.org/2000/svg">
<rect x="160" width="169" height="41" rx="4" fill="#FB9300"/>
<path d="M207.336 21.6172H205.133V26H203.156V14.625H207.156C208.469 14.625 209.482 14.9193 210.195 15.5078C210.909 16.0964 211.266 16.9479 211.266 18.0625C211.266 18.8229 211.081 19.4609 210.711 19.9766C210.346 20.487 209.836 20.8802 209.18 21.1562L211.734 25.8984V26H209.617L207.336 21.6172ZM205.133 20.0312H207.164C207.831 20.0312 208.352 19.8646 208.727 19.5312C209.102 19.1927 209.289 18.7318 209.289 18.1484C209.289 17.5391 209.115 17.0677 208.766 16.7344C208.422 16.401 207.906 16.2292 207.219 16.2188H205.133V20.0312ZM215.984 17.3828C217.172 17.3828 218.125 17.7734 218.844 18.5547C219.562 19.3359 219.922 20.3672 219.922 21.6484V21.8906C219.922 22.6927 219.76 23.4219 219.438 24.0781C219.12 24.7292 218.677 25.2396 218.109 25.6094C217.542 25.974 216.909 26.1536 216.211 26.1484C215.102 26.1484 214.234 25.8151 213.609 25.1484C212.99 24.4766 212.68 23.5234 212.68 22.2891V21.2266H218.008C217.951 20.5182 217.734 19.9557 217.359 19.5391C216.99 19.1172 216.495 18.9062 215.875 18.9062C215.427 18.9062 215.021 18.9583 214.656 19.0625C214.297 19.1615 213.914 19.349 213.508 19.625L212.891 18.3906C213.255 18.0677 213.711 17.8203 214.258 17.6484C214.805 17.4714 215.38 17.3828 215.984 17.3828ZM216.211 24.6328C216.659 24.6328 217.039 24.4479 217.352 24.0781C217.664 23.7083 217.87 23.2214 217.969 22.6172H214.555V22.8125C214.555 23.3906 214.701 23.8385 214.992 24.1562C215.289 24.474 215.695 24.6328 216.211 24.6328ZM224.273 23.2812L225.992 17.5469H228.016L224.656 27.2812C224.141 28.7031 223.266 29.4141 222.031 29.4141C221.755 29.4141 221.451 29.3672 221.117 29.2734V27.8047L221.477 27.8281C221.956 27.8281 222.315 27.7396 222.555 27.5625C222.799 27.3906 222.992 27.099 223.133 26.6875L223.406 25.9609L220.438 17.5469H222.484L224.273 23.2812ZM231.133 26H229.234V17.5469H231.133V26ZM229.117 15.3516C229.117 15.0599 229.208 14.8177 229.391 14.625C229.578 14.4323 229.844 14.3359 230.188 14.3359C230.531 14.3359 230.797 14.4323 230.984 14.625C231.172 14.8177 231.266 15.0599 231.266 15.3516C231.266 15.638 231.172 15.8776 230.984 16.0703C230.797 16.2578 230.531 16.3516 230.188 16.3516C229.844 16.3516 229.578 16.2578 229.391 16.0703C229.208 15.8776 229.117 15.638 229.117 15.3516ZM236.859 21.7109C236.859 20.3984 237.167 19.3516 237.781 18.5703C238.401 17.7839 239.221 17.3906 240.242 17.3906C241.206 17.3906 241.964 17.7266 242.516 18.3984L242.602 17.5469H244.312V25.7422C244.312 26.8516 243.966 27.7266 243.273 28.3672C242.586 29.0078 241.656 29.3281 240.484 29.3281C239.865 29.3281 239.258 29.1979 238.664 28.9375C238.076 28.6823 237.628 28.3464 237.32 27.9297L238.219 26.7891C238.802 27.4818 239.521 27.8281 240.375 27.8281C241.005 27.8281 241.503 27.6562 241.867 27.3125C242.232 26.974 242.414 26.474 242.414 25.8125V25.2422C241.867 25.8516 241.138 26.1562 240.227 26.1562C239.237 26.1562 238.427 25.763 237.797 24.9766C237.172 24.1901 236.859 23.1016 236.859 21.7109ZM238.75 21.875C238.75 22.724 238.922 23.3932 239.266 23.8828C239.615 24.3672 240.096 24.6094 240.711 24.6094C241.477 24.6094 242.044 24.2812 242.414 23.625V19.9062C242.055 19.2656 241.492 18.9453 240.727 18.9453C240.102 18.9453 239.615 19.1927 239.266 19.6875C238.922 20.1823 238.75 20.9115 238.75 21.875ZM245.914 21.6953C245.914 20.8672 246.078 20.1224 246.406 19.4609C246.734 18.7943 247.195 18.2839 247.789 17.9297C248.383 17.5703 249.065 17.3906 249.836 17.3906C250.977 17.3906 251.901 17.7578 252.609 18.4922C253.323 19.2266 253.708 20.2005 253.766 21.4141L253.773 21.8594C253.773 22.6927 253.612 23.4375 253.289 24.0938C252.971 24.75 252.513 25.2578 251.914 25.6172C251.32 25.9766 250.633 26.1562 249.852 26.1562C248.659 26.1562 247.703 25.7604 246.984 24.9688C246.271 24.1719 245.914 23.112 245.914 21.7891V21.6953ZM247.812 21.8594C247.812 22.7292 247.992 23.4115 248.352 23.9062C248.711 24.3958 249.211 24.6406 249.852 24.6406C250.492 24.6406 250.99 24.3906 251.344 23.8906C251.703 23.3906 251.883 22.6589 251.883 21.6953C251.883 20.8411 251.698 20.1641 251.328 19.6641C250.964 19.1641 250.466 18.9141 249.836 18.9141C249.216 18.9141 248.724 19.1615 248.359 19.6562C247.995 20.1458 247.812 20.8802 247.812 21.8594ZM247.031 15.3281C247.031 15.0677 247.117 14.849 247.289 14.6719C247.466 14.4948 247.708 14.4062 248.016 14.4062C248.323 14.4062 248.565 14.4948 248.742 14.6719C248.919 14.849 249.008 15.0677 249.008 15.3281C249.008 15.5885 248.919 15.8073 248.742 15.9844C248.565 16.1615 248.323 16.25 248.016 16.25C247.708 16.25 247.466 16.1615 247.289 15.9844C247.117 15.8073 247.031 15.5885 247.031 15.3281ZM250.602 15.3359C250.602 15.0755 250.688 14.8568 250.859 14.6797C251.036 14.5026 251.279 14.4141 251.586 14.4141C251.893 14.4141 252.135 14.5026 252.312 14.6797C252.49 14.8568 252.578 15.0755 252.578 15.3359C252.578 15.5964 252.49 15.8151 252.312 15.9922C252.135 16.1693 251.893 16.2578 251.586 16.2578C251.279 16.2578 251.036 16.1693 250.859 15.9922C250.688 15.8151 250.602 15.5964 250.602 15.3359ZM257.141 17.5469L257.195 18.5234C257.82 17.7682 258.641 17.3906 259.656 17.3906C261.417 17.3906 262.312 18.3984 262.344 20.4141V26H260.445V20.5234C260.445 19.987 260.328 19.5911 260.094 19.3359C259.865 19.0755 259.487 18.9453 258.961 18.9453C258.195 18.9453 257.625 19.2917 257.25 19.9844V26H255.352V17.5469H257.141ZM263.93 21.7109C263.93 20.4089 264.232 19.3646 264.836 18.5781C265.44 17.7865 266.25 17.3906 267.266 17.3906C268.161 17.3906 268.885 17.7031 269.438 18.3281V14H271.336V26H269.617L269.523 25.125C268.956 25.8125 268.198 26.1562 267.25 26.1562C266.26 26.1562 265.458 25.7578 264.844 24.9609C264.234 24.1641 263.93 23.0807 263.93 21.7109ZM265.828 21.875C265.828 22.7344 265.992 23.4062 266.32 23.8906C266.654 24.3698 267.125 24.6094 267.734 24.6094C268.51 24.6094 269.078 24.263 269.438 23.5703V19.9609C269.089 19.2839 268.526 18.9453 267.75 18.9453C267.135 18.9453 266.661 19.1901 266.328 19.6797C265.995 20.1641 265.828 20.8958 265.828 21.875ZM276.344 17.3828C277.531 17.3828 278.484 17.7734 279.203 18.5547C279.922 19.3359 280.281 20.3672 280.281 21.6484V21.8906C280.281 22.6927 280.12 23.4219 279.797 24.0781C279.479 24.7292 279.036 25.2396 278.469 25.6094C277.901 25.974 277.268 26.1536 276.57 26.1484C275.461 26.1484 274.594 25.8151 273.969 25.1484C273.349 24.4766 273.039 23.5234 273.039 22.2891V21.2266H278.367C278.31 20.5182 278.094 19.9557 277.719 19.5391C277.349 19.1172 276.854 18.9062 276.234 18.9062C275.786 18.9062 275.38 18.9583 275.016 19.0625C274.656 19.1615 274.273 19.349 273.867 19.625L273.25 18.3906C273.615 18.0677 274.07 17.8203 274.617 17.6484C275.164 17.4714 275.74 17.3828 276.344 17.3828ZM276.57 24.6328C277.018 24.6328 277.398 24.4479 277.711 24.0781C278.023 23.7083 278.229 23.2214 278.328 22.6172H274.914V22.8125C274.914 23.3906 275.06 23.8385 275.352 24.1562C275.648 24.474 276.055 24.6328 276.57 24.6328ZM286.211 19.2812C285.961 19.2396 285.703 19.2188 285.438 19.2188C284.568 19.2188 283.982 19.5521 283.68 20.2188V26H281.781V17.5469H283.594L283.641 18.4922C284.099 17.7578 284.734 17.3906 285.547 17.3906C285.818 17.3906 286.042 17.4271 286.219 17.5L286.211 19.2812Z" fill="#F6F6F6"/>
<path d="M10.6326 10.1297L12.7357 14.9266C12.8148 15.1071 12.9409 15.2631 13.1009 15.3782C13.2608 15.4934 13.4488 15.5635 13.6451 15.5812L18.7685 16.0406C19.3482 16.125 19.5794 16.8359 19.1591 17.2453L15.2997 20.4875C14.9872 20.75 14.8451 21.1625 14.931 21.5609L16.0529 26.8125C16.1513 27.3891 15.5466 27.8297 15.0279 27.5562L10.556 24.9375C10.3873 24.8385 10.1953 24.7863 9.99975 24.7863C9.80418 24.7863 9.61216 24.8385 9.4435 24.9375L4.97162 27.5547C4.45444 27.8266 3.84819 27.3875 3.94662 26.8109L5.0685 21.5594C5.15287 21.1609 5.01225 20.7484 4.69975 20.4859L0.83881 17.2469C0.42006 16.8391 0.65131 16.1266 1.22944 16.0422L6.35287 15.5828C6.54917 15.5651 6.73711 15.495 6.89707 15.3798C7.05703 15.2646 7.18314 15.1087 7.26225 14.9281L9.36537 10.1313C9.62631 9.60625 10.3732 9.60625 10.6326 10.1297Z" fill="#FDD835"/>
<path d="M70.6326 10.1297L72.7357 14.9266C72.8148 15.1071 72.9409 15.2631 73.1009 15.3782C73.2608 15.4934 73.4488 15.5635 73.6451 15.5812L78.7685 16.0406C79.3482 16.125 79.5794 16.8359 79.1591 17.2453L75.2997 20.4875C74.9872 20.75 74.8451 21.1625 74.931 21.5609L76.0529 26.8125C76.1513 27.3891 75.5466 27.8297 75.0279 27.5562L70.556 24.9375C70.3873 24.8385 70.1953 24.7863 69.9997 24.7863C69.8042 24.7863 69.6122 24.8385 69.4435 24.9375L64.9716 27.5547C64.4544 27.8266 63.8482 27.3875 63.9466 26.8109L65.0685 21.5594C65.1529 21.1609 65.0122 20.7484 64.6997 20.4859L60.8388 17.2469C60.4201 16.8391 60.6513 16.1266 61.2294 16.0422L66.3529 15.5828C66.5492 15.5651 66.7371 15.495 66.8971 15.3798C67.057 15.2646 67.1831 15.1087 67.2622 14.9281L69.3654 10.1313C69.6263 9.60625 70.3732 9.60625 70.6326 10.1297Z" fill="#FDD835"/>
<path d="M40.6326 10.1297L42.7357 14.9266C42.8148 15.1071 42.9409 15.2631 43.1009 15.3782C43.2608 15.4934 43.4488 15.5635 43.6451 15.5812L48.7685 16.0406C49.3482 16.125 49.5794 16.8359 49.1591 17.2453L45.2997 20.4875C44.9872 20.75 44.8451 21.1625 44.931 21.5609L46.0529 26.8125C46.1513 27.3891 45.5466 27.8297 45.0279 27.5562L40.556 24.9375C40.3873 24.8385 40.1953 24.7863 39.9997 24.7863C39.8042 24.7863 39.6122 24.8385 39.4435 24.9375L34.9716 27.5547C34.4544 27.8266 33.8482 27.3875 33.9466 26.8109L35.0685 21.5594C35.1529 21.1609 35.0122 20.7484 34.6997 20.4859L30.8388 17.2469C30.4201 16.8391 30.6513 16.1266 31.2294 16.0422L36.3529 15.5828C36.5492 15.5651 36.7371 15.495 36.8971 15.3798C37.057 15.2646 37.1831 15.1087 37.2622 14.9281L39.3654 10.1313C39.6263 9.60625 40.3732 9.60625 40.6326 10.1297Z" fill="#FDD835"/>
<path d="M100.633 10.1297L102.736 14.9266C102.815 15.1071 102.941 15.2631 103.101 15.3782C103.261 15.4934 103.449 15.5635 103.645 15.5812L108.768 16.0406C109.348 16.125 109.579 16.8359 109.159 17.2453L105.3 20.4875C104.987 20.75 104.845 21.1625 104.931 21.5609L106.053 26.8125C106.151 27.3891 105.547 27.8297 105.028 27.5562L100.556 24.9375C100.387 24.8385 100.195 24.7863 99.9997 24.7863C99.8042 24.7863 99.6122 24.8385 99.4435 24.9375L94.9716 27.5547C94.4544 27.8266 93.8482 27.3875 93.9466 26.8109L95.0685 21.5594C95.1529 21.1609 95.0122 20.7484 94.6997 20.4859L90.8388 17.2469C90.4201 16.8391 90.6513 16.1266 91.2294 16.0422L96.3529 15.5828C96.5492 15.5651 96.7371 15.495 96.8971 15.3798C97.057 15.2646 97.1831 15.1087 97.2622 14.9281L99.3654 10.1313C99.6263 9.60625 100.373 9.60625 100.633 10.1297Z" fill="#FDD835"/>
<path d="M130.633 10.1297L132.736 14.9266C132.815 15.1071 132.941 15.2631 133.101 15.3782C133.261 15.4934 133.449 15.5635 133.645 15.5812L138.768 16.0406C139.348 16.125 139.579 16.8359 139.159 17.2453L135.3 20.4875C134.987 20.75 134.845 21.1625 134.931 21.5609L136.053 26.8125C136.151 27.3891 135.547 27.8297 135.028 27.5562L130.556 24.9375C130.387 24.8385 130.195 24.7863 130 24.7863C129.804 24.7863 129.612 24.8385 129.443 24.9375L124.972 27.5547C124.454 27.8266 123.848 27.3875 123.947 26.8109L125.068 21.5594C125.153 21.1609 125.012 20.7484 124.7 20.4859L120.839 17.2469C120.42 16.8391 120.651 16.1266 121.229 16.0422L126.353 15.5828C126.549 15.5651 126.737 15.495 126.897 15.3798C127.057 15.2646 127.183 15.1087 127.262 14.9281L129.365 10.1313C129.626 9.60625 130.373 9.60625 130.633 10.1297Z" fill="#EDEDED"/>
</svg>
