<svg width="98" height="26" viewBox="0 0 98 26" fill="none" xmlns="http://www.w3.org/2000/svg">
<path d="M1.02 20V18.14C1.87333 17.4333 2.7 16.7333 3.5 16.04C4.31333 15.3467 5.03333 14.66 5.66 13.98C6.3 13.3 6.80667 12.64 7.18 12C7.56667 11.3467 7.76 10.7133 7.76 10.1C7.76 9.52667 7.6 9.02 7.28 8.58C6.97333 8.14 6.46 7.92 5.74 7.92C5.00667 7.92 4.45333 8.16 4.08 8.64C3.70667 9.12 3.52 9.7 3.52 10.38H1.04C1.06667 9.35333 1.29333 8.5 1.72 7.82C2.14667 7.12667 2.71333 6.61333 3.42 6.28C4.12667 5.93333 4.92 5.76 5.8 5.76C7.22667 5.76 8.33333 6.15333 9.12 6.94C9.92 7.71333 10.32 8.72 10.32 9.96C10.32 10.7333 10.14 11.4867 9.78 12.22C9.43333 12.9533 8.97333 13.66 8.4 14.34C7.82667 15.02 7.20667 15.66 6.54 16.26C5.87333 16.8467 5.22667 17.3933 4.6 17.9H10.66V20H1.02ZM17.3658 20.24C16.4458 20.24 15.6124 20.08 14.8658 19.76C14.1191 19.4267 13.5191 18.92 13.0658 18.24C12.6124 17.56 12.3724 16.7067 12.3458 15.68H14.8658C14.8791 16.36 15.0991 16.9333 15.5258 17.4C15.9658 17.8533 16.5791 18.08 17.3658 18.08C18.1124 18.08 18.6858 17.8733 19.0858 17.46C19.4858 17.0467 19.6858 16.5267 19.6858 15.9C19.6858 15.1667 19.4191 14.6133 18.8858 14.24C18.3658 13.8533 17.6924 13.66 16.8658 13.66H15.8258V11.56H16.8858C17.5658 11.56 18.1324 11.4 18.5858 11.08C19.0391 10.76 19.2658 10.2867 19.2658 9.66C19.2658 9.14 19.0924 8.72667 18.7458 8.42C18.4124 8.1 17.9458 7.94 17.3458 7.94C16.6924 7.94 16.1791 8.13333 15.8058 8.52C15.4458 8.90667 15.2458 9.38 15.2058 9.94H12.7058C12.7591 8.64667 13.2058 7.62667 14.0458 6.88C14.8991 6.13333 15.9991 5.76 17.3458 5.76C18.3058 5.76 19.1124 5.93333 19.7658 6.28C20.4324 6.61333 20.9324 7.06 21.2658 7.62C21.6124 8.18 21.7858 8.8 21.7858 9.48C21.7858 10.2667 21.5658 10.9333 21.1258 11.48C20.6991 12.0133 20.1658 12.3733 19.5258 12.56C20.3124 12.72 20.9524 13.1067 21.4458 13.72C21.9391 14.32 22.1858 15.08 22.1858 16C22.1858 16.7733 21.9991 17.48 21.6258 18.12C21.2524 18.76 20.7058 19.2733 19.9858 19.66C19.2791 20.0467 18.4058 20.24 17.3658 20.24ZM29.6398 20.24C28.6798 20.24 27.8132 20.0733 27.0398 19.74C26.2665 19.3933 25.6465 18.9067 25.1798 18.28C24.7265 17.6533 24.4998 16.9267 24.4998 16.1C24.4998 15.2467 24.7198 14.5 25.1598 13.86C25.6132 13.22 26.2065 12.76 26.9398 12.48C26.2998 12.2 25.7932 11.8 25.4198 11.28C25.0465 10.7467 24.8598 10.1533 24.8598 9.5C24.8598 8.83333 25.0398 8.22 25.3998 7.66C25.7598 7.08667 26.2932 6.62667 26.9998 6.28C27.7198 5.93333 28.5998 5.76 29.6398 5.76C30.6798 5.76 31.5532 5.93333 32.2598 6.28C32.9665 6.62667 33.4998 7.08667 33.8598 7.66C34.2198 8.22 34.3998 8.83333 34.3998 9.5C34.3998 10.14 34.2065 10.7333 33.8198 11.28C33.4465 11.8133 32.9465 12.2133 32.3198 12.48C33.0665 12.76 33.6598 13.22 34.0998 13.86C34.5398 14.5 34.7598 15.2467 34.7598 16.1C34.7598 16.9267 34.5332 17.6533 34.0798 18.28C33.6265 18.9067 33.0065 19.3933 32.2198 19.74C31.4465 20.0733 30.5865 20.24 29.6398 20.24ZM29.6398 11.72C30.3332 11.72 30.8798 11.54 31.2798 11.18C31.6798 10.82 31.8798 10.36 31.8798 9.8C31.8798 9.18667 31.6798 8.70667 31.2798 8.36C30.8932 8.01333 30.3465 7.84 29.6398 7.84C28.9198 7.84 28.3665 8.01333 27.9798 8.36C27.5932 8.70667 27.3998 9.18667 27.3998 9.8C27.3998 10.3733 27.5932 10.84 27.9798 11.2C28.3798 11.5467 28.9332 11.72 29.6398 11.72ZM29.6398 18.1C30.4932 18.1 31.1398 17.8933 31.5798 17.48C32.0198 17.0533 32.2398 16.52 32.2398 15.88C32.2398 15.1733 32.0065 14.62 31.5398 14.22C31.0865 13.82 30.4532 13.62 29.6398 13.62C28.8265 13.62 28.1798 13.82 27.6998 14.22C27.2332 14.62 26.9998 15.1733 26.9998 15.88C26.9998 16.52 27.2198 17.0533 27.6598 17.48C28.1132 17.8933 28.7732 18.1 29.6398 18.1ZM41.5697 20.24C40.5964 20.24 39.7764 20.0533 39.1097 19.68C38.443 19.2933 37.923 18.7933 37.5497 18.18C37.1764 17.5667 36.9564 16.9067 36.8897 16.2H39.2697C39.3764 16.8133 39.6297 17.2867 40.0297 17.62C40.443 17.9533 40.963 18.12 41.5897 18.12C42.483 18.12 43.203 17.7133 43.7497 16.9C44.2964 16.0733 44.5897 14.82 44.6297 13.14C44.3097 13.6867 43.823 14.14 43.1697 14.5C42.5297 14.86 41.823 15.04 41.0497 15.04C40.2764 15.04 39.5497 14.8533 38.8697 14.48C38.1897 14.1067 37.6364 13.58 37.2097 12.9C36.783 12.22 36.5697 11.42 36.5697 10.5C36.5697 9.66 36.7764 8.88 37.1897 8.16C37.603 7.44 38.1764 6.86 38.9097 6.42C39.643 5.98 40.503 5.76 41.4897 5.76C42.543 5.76 43.4297 5.95333 44.1497 6.34C44.8697 6.72667 45.443 7.24667 45.8697 7.9C46.3097 8.55333 46.623 9.28 46.8097 10.08C47.0097 10.88 47.1097 11.7 47.1097 12.54C47.1097 14.1 46.8897 15.46 46.4497 16.62C46.023 17.7667 45.3897 18.66 44.5497 19.3C43.723 19.9267 42.7297 20.24 41.5697 20.24ZM41.6497 12.88C42.143 12.88 42.5897 12.7733 42.9897 12.56C43.3897 12.3333 43.703 12.04 43.9297 11.68C44.1564 11.3067 44.2697 10.8933 44.2697 10.44C44.2697 9.72 44.0164 9.12667 43.5097 8.66C43.0164 8.19333 42.3897 7.96 41.6297 7.96C40.883 7.96 40.263 8.19333 39.7697 8.66C39.2764 9.11333 39.0297 9.69333 39.0297 10.4C39.0297 11.1467 39.2764 11.7467 39.7697 12.2C40.263 12.6533 40.8897 12.88 41.6497 12.88ZM49.9 20.14C49.4333 20.14 49.0467 19.9933 48.74 19.7C48.4467 19.4067 48.3 19.0533 48.3 18.64C48.3 18.2133 48.4467 17.8533 48.74 17.56C49.0467 17.2667 49.4333 17.12 49.9 17.12C50.3667 17.12 50.7467 17.2667 51.04 17.56C51.3467 17.8533 51.5 18.2133 51.5 18.64C51.5 19.0533 51.3467 19.4067 51.04 19.7C50.7467 19.9933 50.3667 20.14 49.9 20.14ZM57.8392 20.24C56.8659 20.24 56.0459 20.0533 55.3792 19.68C54.7126 19.2933 54.1926 18.7933 53.8192 18.18C53.4459 17.5667 53.2259 16.9067 53.1592 16.2H55.5392C55.6459 16.8133 55.8992 17.2867 56.2992 17.62C56.7126 17.9533 57.2326 18.12 57.8592 18.12C58.7526 18.12 59.4726 17.7133 60.0192 16.9C60.5659 16.0733 60.8592 14.82 60.8992 13.14C60.5792 13.6867 60.0926 14.14 59.4392 14.5C58.7992 14.86 58.0926 15.04 57.3192 15.04C56.5459 15.04 55.8192 14.8533 55.1392 14.48C54.4592 14.1067 53.9059 13.58 53.4792 12.9C53.0526 12.22 52.8392 11.42 52.8392 10.5C52.8392 9.66 53.0459 8.88 53.4592 8.16C53.8726 7.44 54.4459 6.86 55.1792 6.42C55.9126 5.98 56.7726 5.76 57.7592 5.76C58.8126 5.76 59.6992 5.95333 60.4192 6.34C61.1392 6.72667 61.7126 7.24667 62.1392 7.9C62.5792 8.55333 62.8926 9.28 63.0792 10.08C63.2792 10.88 63.3792 11.7 63.3792 12.54C63.3792 14.1 63.1592 15.46 62.7192 16.62C62.2926 17.7667 61.6592 18.66 60.8192 19.3C59.9926 19.9267 58.9992 20.24 57.8392 20.24ZM57.9192 12.88C58.4126 12.88 58.8592 12.7733 59.2592 12.56C59.6592 12.3333 59.9726 12.04 60.1992 11.68C60.4259 11.3067 60.5392 10.8933 60.5392 10.44C60.5392 9.72 60.2859 9.12667 59.7792 8.66C59.2859 8.19333 58.6592 7.96 57.8992 7.96C57.1526 7.96 56.5326 8.19333 56.0392 8.66C55.5459 9.11333 55.2992 9.69333 55.2992 10.4C55.2992 11.1467 55.5459 11.7467 56.0392 12.2C56.5326 12.6533 57.1592 12.88 57.9192 12.88ZM70.515 20.24C69.5417 20.24 68.7217 20.0533 68.055 19.68C67.3883 19.2933 66.8683 18.7933 66.495 18.18C66.1217 17.5667 65.9017 16.9067 65.835 16.2H68.215C68.3217 16.8133 68.575 17.2867 68.975 17.62C69.3883 17.9533 69.9083 18.12 70.535 18.12C71.4283 18.12 72.1483 17.7133 72.695 16.9C73.2417 16.0733 73.535 14.82 73.575 13.14C73.255 13.6867 72.7683 14.14 72.115 14.5C71.475 14.86 70.7683 15.04 69.995 15.04C69.2217 15.04 68.495 14.8533 67.815 14.48C67.135 14.1067 66.5817 13.58 66.155 12.9C65.7283 12.22 65.515 11.42 65.515 10.5C65.515 9.66 65.7217 8.88 66.135 8.16C66.5483 7.44 67.1217 6.86 67.855 6.42C68.5883 5.98 69.4483 5.76 70.435 5.76C71.4883 5.76 72.375 5.95333 73.095 6.34C73.815 6.72667 74.3883 7.24667 74.815 7.9C75.255 8.55333 75.5683 9.28 75.755 10.08C75.955 10.88 76.055 11.7 76.055 12.54C76.055 14.1 75.835 15.46 75.395 16.62C74.9683 17.7667 74.335 18.66 73.495 19.3C72.6683 19.9267 71.675 20.24 70.515 20.24ZM70.595 12.88C71.0883 12.88 71.535 12.7733 71.935 12.56C72.335 12.3333 72.6483 12.04 72.875 11.68C73.1017 11.3067 73.215 10.8933 73.215 10.44C73.215 9.72 72.9617 9.12667 72.455 8.66C71.9617 8.19333 71.335 7.96 70.575 7.96C69.8283 7.96 69.2083 8.19333 68.715 8.66C68.2217 9.11333 67.975 9.69333 67.975 10.4C67.975 11.1467 68.2217 11.7467 68.715 12.2C69.2083 12.6533 69.835 12.88 70.595 12.88Z" fill="#2D2D2D"/>
<path fill-rule="evenodd" clip-rule="evenodd" d="M89.8513 8.50482C89.8513 8.98352 90.2071 9.38337 90.6747 9.48593C94.8738 10.4069 98 13.9331 98 18.1452C98 18.4549 97.9831 18.7607 97.9501 19.0619C97.8896 19.6152 97.3978 20 96.8412 20C96.0358 20 95.462 19.208 95.4956 18.4033C95.4991 18.3177 95.5009 18.2316 95.5009 18.1452C95.5009 16.3246 94.7079 14.678 93.4276 13.4909C91.8842 12.0596 89.8531 13.6551 89.8531 15.76V17.0866C89.8531 17.5829 89.5664 18.0344 89.1174 18.2456C88.268 18.6451 87.2915 18.0253 87.2915 17.0866V14.8598C87.2915 13.1986 85.7409 11.9158 84.3708 12.8551C82.6321 14.0471 81.5026 15.9724 81.5026 18.1452C81.5026 18.2311 81.5044 18.3165 81.5079 18.4014C81.5411 19.2071 80.9669 20 80.1605 20C79.603 20 79.1105 19.6144 79.0498 19.0601C79.0169 18.7588 79 18.4532 79 18.1436C79 13.8254 82.287 10.2275 86.646 9.41895C87.011 9.35123 87.2897 9.04141 87.2897 8.67012C87.2897 8.38607 87.4538 8.12759 87.7109 8.00669L88.4895 7.64046C89.1231 7.3425 89.8513 7.80474 89.8513 8.50482Z" fill="#2D2D2D"/>
</svg>
