<svg width="128" height="48" viewBox="0 0 128 48" fill="none" xmlns="http://www.w3.org/2000/svg">
<rect width="128" height="48" rx="10" fill="#FB9300"/>
<path fill-rule="evenodd" clip-rule="evenodd" d="M18.3335 19.8333C18.3335 19.3731 18.7066 19 19.1668 19H30.8335C31.2937 19 31.6668 19.3731 31.6668 19.8333C31.6668 20.2936 31.2937 20.6667 30.8335 20.6667H19.1668C18.7066 20.6667 18.3335 20.2936 18.3335 19.8333ZM18.3335 24C18.3335 23.5398 18.7066 23.1667 19.1668 23.1667H30.8335C31.2937 23.1667 31.6668 23.5398 31.6668 24C31.6668 24.4602 31.2937 24.8333 30.8335 24.8333H19.1668C18.7066 24.8333 18.3335 24.4602 18.3335 24ZM18.3335 28.1667C18.3335 27.7064 18.7066 27.3333 19.1668 27.3333H30.8335C31.2937 27.3333 31.6668 27.7064 31.6668 28.1667C31.6668 28.6269 31.2937 29 30.8335 29H19.1668C18.7066 29 18.3335 28.6269 18.3335 28.1667Z" fill="white"/>
<path d="M41.136 29V17.8H42.832V22.6L47.248 17.8H49.344L45.2 22.264L49.44 29H47.376L43.984 23.56L42.832 24.808V29H41.136ZM53.0881 29.192C52.4161 29.192 51.8615 29.08 51.4241 28.856C50.9868 28.632 50.6615 28.3387 50.4481 27.976C50.2348 27.6027 50.1281 27.1973 50.1281 26.76C50.1281 25.992 50.4268 25.384 51.0241 24.936C51.6215 24.488 52.4748 24.264 53.5841 24.264H55.6641V24.12C55.6641 23.5013 55.4935 23.0373 55.1521 22.728C54.8215 22.4187 54.3895 22.264 53.8561 22.264C53.3868 22.264 52.9761 22.3813 52.6241 22.616C52.2828 22.84 52.0748 23.176 52.0001 23.624H50.3041C50.3575 23.048 50.5495 22.5573 50.8801 22.152C51.2215 21.736 51.6481 21.4213 52.1601 21.208C52.6828 20.984 53.2535 20.872 53.8721 20.872C54.9815 20.872 55.8401 21.1653 56.4481 21.752C57.0561 22.328 57.3601 23.1173 57.3601 24.12V29H55.8881L55.7441 27.64C55.5201 28.0773 55.1948 28.4453 54.7681 28.744C54.3415 29.0427 53.7815 29.192 53.0881 29.192ZM53.4241 27.816C53.8828 27.816 54.2668 27.7093 54.5761 27.496C54.8961 27.272 55.1415 26.9787 55.3121 26.616C55.4935 26.2533 55.6055 25.8533 55.6481 25.416H53.7601C53.0881 25.416 52.6081 25.5333 52.3201 25.768C52.0428 26.0027 51.9041 26.296 51.9041 26.648C51.9041 27.0107 52.0375 27.2987 52.3041 27.512C52.5815 27.7147 52.9548 27.816 53.4241 27.816ZM62.5094 29C61.7307 29 61.112 28.8133 60.6534 28.44C60.1947 28.056 59.9654 27.3787 59.9654 26.408V22.488H58.6054V21.064H59.9654L60.1734 19.048H61.6614V21.064H63.9014V22.488H61.6614V26.408C61.6614 26.8453 61.752 27.1493 61.9334 27.32C62.1254 27.48 62.4507 27.56 62.9094 27.56H63.8214V29H62.5094ZM68.3381 29.192C67.6661 29.192 67.1115 29.08 66.6741 28.856C66.2368 28.632 65.9115 28.3387 65.6981 27.976C65.4848 27.6027 65.3781 27.1973 65.3781 26.76C65.3781 25.992 65.6768 25.384 66.2741 24.936C66.8715 24.488 67.7248 24.264 68.8341 24.264H70.9141V24.12C70.9141 23.5013 70.7435 23.0373 70.4021 22.728C70.0715 22.4187 69.6395 22.264 69.1061 22.264C68.6368 22.264 68.2261 22.3813 67.8741 22.616C67.5328 22.84 67.3248 23.176 67.2501 23.624H65.5541C65.6075 23.048 65.7995 22.5573 66.1301 22.152C66.4715 21.736 66.8981 21.4213 67.4101 21.208C67.9328 20.984 68.5035 20.872 69.1221 20.872C70.2315 20.872 71.0901 21.1653 71.6981 21.752C72.3061 22.328 72.6101 23.1173 72.6101 24.12V29H71.1381L70.9941 27.64C70.7701 28.0773 70.4448 28.4453 70.0181 28.744C69.5915 29.0427 69.0315 29.192 68.3381 29.192ZM68.6741 27.816C69.1328 27.816 69.5168 27.7093 69.8261 27.496C70.1461 27.272 70.3915 26.9787 70.5621 26.616C70.7435 26.2533 70.8555 25.8533 70.8981 25.416H69.0101C68.3381 25.416 67.8581 25.5333 67.5701 25.768C67.2928 26.0027 67.1541 26.296 67.1541 26.648C67.1541 27.0107 67.2875 27.2987 67.5541 27.512C67.8315 27.7147 68.2048 27.816 68.6741 27.816ZM74.5876 29V17.48H76.2836V29H74.5876ZM82.1434 29.192C81.386 29.192 80.7034 29.0213 80.0954 28.68C79.498 28.328 79.0234 27.8427 78.6714 27.224C78.3194 26.5947 78.1434 25.864 78.1434 25.032C78.1434 24.2 78.3194 23.4747 78.6714 22.856C79.034 22.2267 79.5194 21.7413 80.1274 21.4C80.7354 21.048 81.4127 20.872 82.1594 20.872C82.9167 20.872 83.594 21.048 84.1914 21.4C84.7994 21.7413 85.2794 22.2267 85.6314 22.856C85.994 23.4747 86.1754 24.2 86.1754 25.032C86.1754 25.864 85.994 26.5947 85.6314 27.224C85.2794 27.8427 84.7994 28.328 84.1914 28.68C83.5834 29.0213 82.9007 29.192 82.1434 29.192ZM82.1434 27.736C82.5487 27.736 82.922 27.6347 83.2634 27.432C83.6154 27.2293 83.898 26.9307 84.1114 26.536C84.3247 26.1307 84.4314 25.6293 84.4314 25.032C84.4314 24.4347 84.3247 23.9387 84.1114 23.544C83.9087 23.1387 83.6314 22.8347 83.2794 22.632C82.938 22.4293 82.5647 22.328 82.1594 22.328C81.754 22.328 81.3754 22.4293 81.0234 22.632C80.682 22.8347 80.4047 23.1387 80.1914 23.544C79.978 23.9387 79.8714 24.4347 79.8714 25.032C79.8714 25.6293 79.978 26.1307 80.1914 26.536C80.4047 26.9307 80.682 27.2293 81.0234 27.432C81.3647 27.6347 81.738 27.736 82.1434 27.736ZM94.4095 32.52V27.768C94.1535 28.1413 93.8015 28.472 93.3535 28.76C92.9055 29.048 92.3295 29.192 91.6255 29.192C90.8575 29.192 90.1802 29.0107 89.5935 28.648C89.0068 28.2853 88.5482 27.7893 88.2175 27.16C87.8868 26.5307 87.7215 25.816 87.7215 25.016C87.7215 24.216 87.8868 23.5067 88.2175 22.888C88.5482 22.2587 89.0068 21.768 89.5935 21.416C90.1908 21.0533 90.8735 20.872 91.6415 20.872C92.2708 20.872 92.8202 20.9947 93.2895 21.24C93.7695 21.4853 94.1428 21.832 94.4095 22.28L94.5855 21.064H96.1055V32.52H94.4095ZM91.9295 27.72C92.6548 27.72 93.2468 27.4693 93.7055 26.968C94.1748 26.4667 94.4095 25.8213 94.4095 25.032C94.4095 24.232 94.1748 23.5867 93.7055 23.096C93.2468 22.5947 92.6548 22.344 91.9295 22.344C91.2042 22.344 90.6068 22.5947 90.1375 23.096C89.6682 23.5867 89.4335 24.232 89.4335 25.032C89.4335 25.5547 89.5402 26.0187 89.7535 26.424C89.9668 26.8293 90.2602 27.1493 90.6335 27.384C91.0175 27.608 91.4495 27.72 91.9295 27.72Z" fill="white"/>
<path d="M106.533 28.1225L109.713 24.9425C109.783 24.8728 109.839 24.7898 109.877 24.6984C109.915 24.607 109.935 24.509 109.935 24.41C109.935 24.311 109.915 24.2129 109.877 24.1216C109.839 24.0302 109.783 23.9472 109.713 23.8775C109.572 23.7378 109.382 23.6594 109.184 23.6594C108.986 23.6594 108.796 23.7378 108.655 23.8775L106 26.5325L103.345 23.8775C103.205 23.7378 103.015 23.6594 102.816 23.6594C102.618 23.6594 102.428 23.7378 102.288 23.8775C102.218 23.9476 102.163 24.0307 102.126 24.1221C102.089 24.2134 102.07 24.3113 102.07 24.41C102.07 24.5087 102.089 24.6065 102.126 24.6979C102.163 24.7893 102.218 24.8724 102.288 24.9425L105.468 28.1225C105.537 28.1928 105.62 28.2486 105.712 28.2867C105.803 28.3247 105.901 28.3443 106 28.3443C106.099 28.3443 106.197 28.3247 106.289 28.2867C106.38 28.2486 106.463 28.1928 106.533 28.1225Z" fill="white"/>
</svg>
