<svg width="171" height="27" viewBox="0 0 171 27" fill="none" xmlns="http://www.w3.org/2000/svg">
<path d="M13.043 17.918V20.168H0.738281L0.644531 18.4688L8.00391 6.9375H10.2656L7.81641 11.1328L3.58594 17.918H13.043ZM10.9102 6.9375V24H8.08594V6.9375H10.9102ZM15.2109 22.5938C15.2109 22.1562 15.3594 21.7891 15.6562 21.4922C15.9531 21.1875 16.3555 21.0352 16.8633 21.0352C17.3789 21.0352 17.7812 21.1875 18.0703 21.4922C18.3672 21.7891 18.5156 22.1562 18.5156 22.5938C18.5156 23.0312 18.3672 23.3984 18.0703 23.6953C17.7812 23.9922 17.3789 24.1406 16.8633 24.1406C16.3555 24.1406 15.9531 23.9922 15.6562 23.6953C15.3594 23.3984 15.2109 23.0312 15.2109 22.5938ZM33.0469 21.75V24H21.6094V22.0664L27.1641 16.0078C27.7734 15.3203 28.2539 14.7266 28.6055 14.2266C28.957 13.7266 29.2031 13.2773 29.3438 12.8789C29.4922 12.4727 29.5664 12.0781 29.5664 11.6953C29.5664 11.1562 29.4648 10.6836 29.2617 10.2773C29.0664 9.86328 28.7773 9.53906 28.3945 9.30469C28.0117 9.0625 27.5469 8.94141 27 8.94141C26.3672 8.94141 25.8359 9.07812 25.4062 9.35156C24.9766 9.625 24.6523 10.0039 24.4336 10.4883C24.2148 10.9648 24.1055 11.5117 24.1055 12.1289H21.2812C21.2812 11.1367 21.5078 10.2305 21.9609 9.41016C22.4141 8.58203 23.0703 7.92578 23.9297 7.44141C24.7891 6.94922 25.8242 6.70312 27.0352 6.70312C28.1758 6.70312 29.1445 6.89453 29.9414 7.27734C30.7383 7.66016 31.3438 8.20312 31.7578 8.90625C32.1797 9.60938 32.3906 10.4414 32.3906 11.4023C32.3906 11.9336 32.3047 12.4609 32.1328 12.9844C31.9609 13.5078 31.7148 14.0312 31.3945 14.5547C31.082 15.0703 30.7109 15.5898 30.2812 16.1133C29.8516 16.6289 29.3789 17.1523 28.8633 17.6836L25.1719 21.75H33.0469ZM40.5264 11.2031L35.1826 25.0986H34.2334L39.5771 11.2031H40.5264ZM43.8662 17.6719L43.04 17.4346L43.6641 11.2031H50.0625V12.1875H44.5605L44.1123 16.4941C44.335 16.3359 44.6572 16.1807 45.0791 16.0283C45.5068 15.8701 45.9873 15.791 46.5205 15.791C47.0889 15.791 47.6045 15.8877 48.0674 16.0811C48.5361 16.2686 48.9375 16.5439 49.2715 16.9072C49.6055 17.2646 49.8633 17.6982 50.0449 18.208C50.2266 18.7119 50.3174 19.2832 50.3174 19.9219C50.3174 20.5371 50.2412 21.1025 50.0889 21.6182C49.9365 22.1338 49.7051 22.585 49.3945 22.9717C49.084 23.3525 48.6885 23.6484 48.208 23.8594C47.7275 24.0703 47.1562 24.1758 46.4941 24.1758C45.9844 24.1758 45.5039 24.1055 45.0527 23.9648C44.6074 23.8184 44.209 23.5986 43.8574 23.3057C43.5059 23.0127 43.2188 22.6436 42.9961 22.1982C42.7793 21.7529 42.6445 21.2314 42.5918 20.6338H43.6025C43.6729 21.208 43.8281 21.6914 44.0684 22.084C44.3086 22.4766 44.6309 22.7725 45.0352 22.9717C45.4453 23.1709 45.9316 23.2705 46.4941 23.2705C46.9512 23.2705 47.3496 23.1973 47.6895 23.0508C48.0352 22.9043 48.3223 22.6904 48.5508 22.4092C48.7852 22.1221 48.9609 21.7734 49.0781 21.3633C49.2012 20.9473 49.2627 20.4727 49.2627 19.9395C49.2627 19.4824 49.1982 19.0635 49.0693 18.6826C48.9404 18.2959 48.75 17.959 48.498 17.6719C48.252 17.3789 47.9473 17.1533 47.584 16.9951C47.2207 16.8369 46.8047 16.7578 46.3359 16.7578C45.7266 16.7578 45.2402 16.8398 44.877 17.0039C44.5195 17.168 44.1826 17.3906 43.8662 17.6719Z" fill="#2D2D2D"/>
<path d="M68.5693 8.01672L70.4621 12.3339C70.5333 12.4964 70.6468 12.6368 70.7908 12.7404C70.9347 12.8441 71.1039 12.9072 71.2806 12.9231L75.8916 13.3366C76.4134 13.4125 76.6215 14.0523 76.2432 14.4208L72.7698 17.3387C72.4885 17.575 72.3606 17.9462 72.4379 18.3048L73.4476 23.0312C73.5362 23.5502 72.992 23.9467 72.5251 23.7006L68.5004 21.3438C68.3486 21.2547 68.1758 21.2077 67.9998 21.2077C67.8238 21.2077 67.6509 21.2547 67.4991 21.3438L63.4745 23.6992C63.009 23.9439 62.4634 23.5487 62.552 23.0298L63.5616 18.3034C63.6376 17.9448 63.511 17.5736 63.2298 17.3373L59.7549 14.4222C59.3781 14.0552 59.5862 13.4139 60.1065 13.338L64.7176 12.9245C64.8943 12.9086 65.0634 12.8455 65.2074 12.7418C65.3513 12.6382 65.4648 12.4978 65.536 12.3353L67.4288 8.01813C67.6637 7.54563 68.3359 7.54563 68.5693 8.01672Z" fill="#FDD835"/>
<path d="M115.569 8.01672L117.462 12.3339C117.533 12.4964 117.647 12.6368 117.791 12.7404C117.935 12.8441 118.104 12.9072 118.281 12.9231L122.892 13.3366C123.413 13.4125 123.621 14.0523 123.243 14.4208L119.77 17.3387C119.489 17.575 119.361 17.9462 119.438 18.3048L120.448 23.0312C120.536 23.5502 119.992 23.9467 119.525 23.7006L115.5 21.3438C115.349 21.2547 115.176 21.2077 115 21.2077C114.824 21.2077 114.651 21.2547 114.499 21.3438L110.474 23.6992C110.009 23.9439 109.463 23.5487 109.552 23.0298L110.562 18.3034C110.638 17.9448 110.511 17.5736 110.23 17.3373L106.755 14.4222C106.378 14.0552 106.586 13.4139 107.106 13.338L111.718 12.9245C111.894 12.9086 112.063 12.8455 112.207 12.7418C112.351 12.6382 112.465 12.4978 112.536 12.3353L114.429 8.01813C114.664 7.54563 115.336 7.54563 115.569 8.01672Z" fill="#FDD835"/>
<path d="M92.5693 8.01672L94.4621 12.3339C94.5333 12.4964 94.6468 12.6368 94.7908 12.7404C94.9347 12.8441 95.1039 12.9072 95.2806 12.9231L99.8916 13.3366C100.413 13.4125 100.621 14.0523 100.243 14.4208L96.7698 17.3387C96.4885 17.575 96.3606 17.9462 96.4379 18.3048L97.4476 23.0312C97.5362 23.5502 96.992 23.9467 96.5251 23.7006L92.5004 21.3438C92.3486 21.2547 92.1758 21.2077 91.9998 21.2077C91.8238 21.2077 91.6509 21.2547 91.4991 21.3438L87.4745 23.6992C87.009 23.9439 86.4634 23.5487 86.552 23.0298L87.5616 18.3034C87.6376 17.9448 87.511 17.5736 87.2298 17.3373L83.7549 14.4222C83.3781 14.0552 83.5862 13.4139 84.1065 13.338L88.7176 12.9245C88.8943 12.9086 89.0634 12.8455 89.2074 12.7418C89.3513 12.6382 89.4648 12.4978 89.536 12.3353L91.4288 8.01813C91.6637 7.54563 92.3359 7.54563 92.5693 8.01672Z" fill="#FDD835"/>
<path d="M139.569 8.01672L141.462 12.3339C141.533 12.4964 141.647 12.6368 141.791 12.7404C141.935 12.8441 142.104 12.9072 142.281 12.9231L146.892 13.3366C147.413 13.4125 147.621 14.0523 147.243 14.4208L143.77 17.3387C143.489 17.575 143.361 17.9462 143.438 18.3048L144.448 23.0312C144.536 23.5502 143.992 23.9467 143.525 23.7006L139.5 21.3438C139.349 21.2547 139.176 21.2077 139 21.2077C138.824 21.2077 138.651 21.2547 138.499 21.3438L134.474 23.6992C134.009 23.9439 133.463 23.5487 133.552 23.0298L134.562 18.3034C134.638 17.9448 134.511 17.5736 134.23 17.3373L130.755 14.4222C130.378 14.0552 130.586 13.4139 131.106 13.338L135.718 12.9245C135.894 12.9086 136.063 12.8455 136.207 12.7418C136.351 12.6382 136.465 12.4978 136.536 12.3353L138.429 8.01813C138.664 7.54563 139.336 7.54563 139.569 8.01672Z" fill="#FDD835"/>
<path d="M162.569 8.01672L164.462 12.3339C164.533 12.4964 164.647 12.6368 164.791 12.7404C164.935 12.8441 165.104 12.9072 165.281 12.9231L169.892 13.3366C170.413 13.4125 170.621 14.0523 170.243 14.4208L166.77 17.3387C166.489 17.575 166.361 17.9462 166.438 18.3048L167.448 23.0312C167.536 23.5502 166.992 23.9467 166.525 23.7006L162.5 21.3438C162.349 21.2547 162.176 21.2077 162 21.2077C161.824 21.2077 161.651 21.2547 161.499 21.3438L157.474 23.6992C157.009 23.9439 156.463 23.5487 156.552 23.0298L157.562 18.3034C157.638 17.9448 157.511 17.5736 157.23 17.3373L153.755 14.4222C153.378 14.0552 153.586 13.4139 154.106 13.338L158.718 12.9245C158.894 12.9086 159.063 12.8455 159.207 12.7418C159.351 12.6382 159.465 12.4978 159.536 12.3353L161.429 8.01813C161.664 7.54563 162.336 7.54563 162.569 8.01672Z" fill="#EDEDED"/>
</svg>
