<svg width="112" height="18" viewBox="0 0 112 18" fill="none" xmlns="http://www.w3.org/2000/svg">
<path d="M9.5693 1.01672L11.4621 5.33391C11.5333 5.49638 11.6468 5.63677 11.7908 5.74041C11.9347 5.84405 12.1039 5.90715 12.2806 5.92312L16.8916 6.33656C17.4134 6.4125 17.6215 7.05234 17.2432 7.42078L13.7698 10.3387C13.4885 10.575 13.3606 10.9462 13.4379 11.3048L14.4476 16.0312C14.5362 16.5502 13.992 16.9467 13.5251 16.7006L9.5004 14.3438C9.3486 14.2547 9.17578 14.2077 8.99977 14.2077C8.82376 14.2077 8.65094 14.2547 8.49915 14.3438L4.47446 16.6992C4.00899 16.9439 3.46337 16.5487 3.55196 16.0298L4.56165 11.3034C4.63759 10.9448 4.51102 10.5736 4.22977 10.3373L0.754929 7.42219C0.378054 7.05516 0.586179 6.41391 1.10649 6.33797L5.71759 5.92453C5.89425 5.90856 6.0634 5.84546 6.20736 5.74182C6.35132 5.63817 6.46483 5.49779 6.53602 5.33531L8.42884 1.01813C8.66368 0.545625 9.33587 0.545625 9.5693 1.01672Z" fill="#FDD835"/>
<path d="M56.5693 1.01672L58.4621 5.33391C58.5333 5.49638 58.6468 5.63677 58.7908 5.74041C58.9347 5.84405 59.1039 5.90715 59.2806 5.92312L63.8916 6.33656C64.4134 6.4125 64.6215 7.05234 64.2432 7.42078L60.7698 10.3387C60.4885 10.575 60.3606 10.9462 60.4379 11.3048L61.4476 16.0312C61.5362 16.5502 60.992 16.9467 60.5251 16.7006L56.5004 14.3438C56.3486 14.2547 56.1758 14.2077 55.9998 14.2077C55.8238 14.2077 55.6509 14.2547 55.4991 14.3438L51.4745 16.6992C51.009 16.9439 50.4634 16.5487 50.552 16.0298L51.5616 11.3034C51.6376 10.9448 51.511 10.5736 51.2298 10.3373L47.7549 7.42219C47.3781 7.05516 47.5862 6.41391 48.1065 6.33797L52.7176 5.92453C52.8943 5.90856 53.0634 5.84546 53.2074 5.74182C53.3513 5.63817 53.4648 5.49779 53.536 5.33531L55.4288 1.01813C55.6637 0.545625 56.3359 0.545625 56.5693 1.01672Z" fill="#FDD835"/>
<path d="M33.5693 1.01672L35.4621 5.33391C35.5333 5.49638 35.6468 5.63677 35.7908 5.74041C35.9347 5.84405 36.1039 5.90715 36.2806 5.92312L40.8916 6.33656C41.4134 6.4125 41.6215 7.05234 41.2432 7.42078L37.7698 10.3387C37.4885 10.575 37.3606 10.9462 37.4379 11.3048L38.4476 16.0312C38.5362 16.5502 37.992 16.9467 37.5251 16.7006L33.5004 14.3438C33.3486 14.2547 33.1758 14.2077 32.9998 14.2077C32.8238 14.2077 32.6509 14.2547 32.4991 14.3438L28.4745 16.6992C28.009 16.9439 27.4634 16.5487 27.552 16.0298L28.5616 11.3034C28.6376 10.9448 28.511 10.5736 28.2298 10.3373L24.7549 7.42219C24.3781 7.05516 24.5862 6.41391 25.1065 6.33797L29.7176 5.92453C29.8943 5.90856 30.0634 5.84546 30.2074 5.74182C30.3513 5.63817 30.4648 5.49779 30.536 5.33531L32.4288 1.01813C32.6637 0.545625 33.3359 0.545625 33.5693 1.01672Z" fill="#FDD835"/>
<path d="M80.5693 1.01672L82.4621 5.33391C82.5333 5.49638 82.6468 5.63677 82.7908 5.74041C82.9347 5.84405 83.1039 5.90715 83.2806 5.92312L87.8916 6.33656C88.4134 6.4125 88.6215 7.05234 88.2432 7.42078L84.7698 10.3387C84.4885 10.575 84.3606 10.9462 84.4379 11.3048L85.4476 16.0312C85.5362 16.5502 84.992 16.9467 84.5251 16.7006L80.5004 14.3438C80.3486 14.2547 80.1758 14.2077 79.9998 14.2077C79.8238 14.2077 79.6509 14.2547 79.4991 14.3438L75.4745 16.6992C75.009 16.9439 74.4634 16.5487 74.552 16.0298L75.5616 11.3034C75.6376 10.9448 75.511 10.5736 75.2298 10.3373L71.7549 7.42219C71.3781 7.05516 71.5862 6.41391 72.1065 6.33797L76.7176 5.92453C76.8943 5.90856 77.0634 5.84546 77.2074 5.74182C77.3513 5.63817 77.4648 5.49779 77.536 5.33531L79.4288 1.01813C79.6637 0.545625 80.3359 0.545625 80.5693 1.01672Z" fill="#FDD835"/>
<path d="M103.569 1.01672L105.462 5.33391C105.533 5.49638 105.647 5.63677 105.791 5.74041C105.935 5.84405 106.104 5.90715 106.281 5.92312L110.892 6.33656C111.413 6.4125 111.621 7.05234 111.243 7.42078L107.77 10.3387C107.489 10.575 107.361 10.9462 107.438 11.3048L108.448 16.0312C108.536 16.5502 107.992 16.9467 107.525 16.7006L103.5 14.3438C103.349 14.2547 103.176 14.2077 103 14.2077C102.824 14.2077 102.651 14.2547 102.499 14.3438L98.4745 16.6992C98.009 16.9439 97.4634 16.5487 97.552 16.0298L98.5616 11.3034C98.6376 10.9448 98.511 10.5736 98.2298 10.3373L94.7549 7.42219C94.3781 7.05516 94.5862 6.41391 95.1065 6.33797L99.7176 5.92453C99.8943 5.90856 100.063 5.84546 100.207 5.74182C100.351 5.63817 100.465 5.49779 100.536 5.33531L102.429 1.01813C102.664 0.545625 103.336 0.545625 103.569 1.01672Z" fill="#FDD835"/>
</svg>
