<svg width="247" height="32" viewBox="0 0 247 32" fill="none" xmlns="http://www.w3.org/2000/svg">
<path d="M235 29.65C234.69 29.65 234.39 29.61 234.14 29.52C230.32 28.21 224.25 23.56 224.25 16.69C224.25 13.19 227.08 10.35 230.56 10.35C232.25 10.35 233.83 11.01 235 12.19C236.17 11.01 237.75 10.35 239.44 10.35C242.92 10.35 245.75 13.2 245.75 16.69C245.75 23.57 239.68 28.21 235.86 29.52C235.61 29.61 235.31 29.65 235 29.65ZM230.56 11.85C227.91 11.85 225.75 14.02 225.75 16.69C225.75 23.52 232.32 27.32 234.63 28.11C234.81 28.17 235.2 28.17 235.38 28.11C237.68 27.32 244.26 23.53 244.26 16.69C244.26 14.02 242.1 11.85 239.45 11.85C237.93 11.85 236.52 12.56 235.61 13.79C235.33 14.17 234.69 14.17 234.41 13.79C233.48 12.55 232.08 11.85 230.56 11.85Z" fill="#343F56"/>
<path d="M137.994 26V16.2H139.478V20.4H144.224V16.2H145.708V26H144.224V21.618H139.478V26H137.994ZM150.893 26.168C150.212 26.168 149.605 26.0187 149.073 25.72C148.55 25.412 148.14 24.9873 147.841 24.446C147.542 23.9047 147.393 23.2747 147.393 22.556C147.393 21.828 147.538 21.1887 147.827 20.638C148.126 20.0873 148.536 19.658 149.059 19.35C149.591 19.042 150.207 18.888 150.907 18.888C151.588 18.888 152.181 19.042 152.685 19.35C153.189 19.6487 153.581 20.05 153.861 20.554C154.141 21.058 154.281 21.6133 154.281 22.22C154.281 22.3133 154.276 22.416 154.267 22.528C154.267 22.6307 154.262 22.7473 154.253 22.878H148.849C148.896 23.55 149.115 24.0633 149.507 24.418C149.908 24.7633 150.37 24.936 150.893 24.936C151.313 24.936 151.663 24.8427 151.943 24.656C152.232 24.46 152.447 24.1987 152.587 23.872H154.071C153.884 24.5253 153.511 25.0713 152.951 25.51C152.4 25.9487 151.714 26.168 150.893 26.168ZM150.893 20.106C150.398 20.106 149.96 20.2553 149.577 20.554C149.194 20.8433 148.961 21.282 148.877 21.87H152.797C152.769 21.3287 152.578 20.8993 152.223 20.582C151.868 20.2647 151.425 20.106 150.893 20.106ZM158.593 26.168C157.715 26.168 156.992 25.9533 156.423 25.524C155.853 25.0947 155.527 24.5253 155.443 23.816H156.941C157.015 24.1333 157.193 24.4087 157.473 24.642C157.753 24.866 158.121 24.978 158.579 24.978C159.027 24.978 159.353 24.8847 159.559 24.698C159.764 24.5113 159.867 24.2967 159.867 24.054C159.867 23.6993 159.722 23.4613 159.433 23.34C159.153 23.2093 158.761 23.0927 158.257 22.99C157.865 22.906 157.473 22.794 157.081 22.654C156.698 22.514 156.376 22.318 156.115 22.066C155.863 21.8047 155.737 21.4547 155.737 21.016C155.737 20.4093 155.97 19.9053 156.437 19.504C156.903 19.0933 157.557 18.888 158.397 18.888C159.171 18.888 159.797 19.0747 160.273 19.448C160.758 19.8213 161.043 20.3487 161.127 21.03H159.699C159.652 20.7313 159.512 20.498 159.279 20.33C159.055 20.162 158.751 20.078 158.369 20.078C157.995 20.078 157.706 20.1573 157.501 20.316C157.295 20.4653 157.193 20.6613 157.193 20.904C157.193 21.1467 157.333 21.338 157.613 21.478C157.902 21.618 158.28 21.744 158.747 21.856C159.213 21.9587 159.643 22.08 160.035 22.22C160.436 22.3507 160.758 22.5467 161.001 22.808C161.243 23.0693 161.365 23.452 161.365 23.956C161.374 24.5907 161.127 25.118 160.623 25.538C160.128 25.958 159.451 26.168 158.593 26.168ZM165.337 26.168C164.749 26.168 164.264 26.07 163.881 25.874C163.498 25.678 163.214 25.4213 163.027 25.104C162.84 24.7773 162.747 24.4227 162.747 24.04C162.747 23.368 163.008 22.836 163.531 22.444C164.054 22.052 164.8 21.856 165.771 21.856H167.591V21.73C167.591 21.1887 167.442 20.7827 167.143 20.512C166.854 20.2413 166.476 20.106 166.009 20.106C165.598 20.106 165.239 20.2087 164.931 20.414C164.632 20.61 164.45 20.904 164.385 21.296H162.901C162.948 20.792 163.116 20.3627 163.405 20.008C163.704 19.644 164.077 19.3687 164.525 19.182C164.982 18.986 165.482 18.888 166.023 18.888C166.994 18.888 167.745 19.1447 168.277 19.658C168.809 20.162 169.075 20.8527 169.075 21.73V26H167.787L167.661 24.81C167.465 25.1927 167.18 25.5147 166.807 25.776C166.434 26.0373 165.944 26.168 165.337 26.168ZM165.631 24.964C166.032 24.964 166.368 24.8707 166.639 24.684C166.919 24.488 167.134 24.2313 167.283 23.914C167.442 23.5967 167.54 23.2467 167.577 22.864H165.925C165.337 22.864 164.917 22.9667 164.665 23.172C164.422 23.3773 164.301 23.634 164.301 23.942C164.301 24.2593 164.418 24.5113 164.651 24.698C164.894 24.8753 165.22 24.964 165.631 24.964ZM174.711 26.168C174.17 26.168 173.689 26.0607 173.269 25.846C172.859 25.6313 172.532 25.328 172.289 24.936L172.135 26H170.805V15.92H172.289V20.134C172.513 19.8073 172.821 19.518 173.213 19.266C173.605 19.014 174.109 18.888 174.725 18.888C175.397 18.888 175.99 19.0467 176.503 19.364C177.017 19.6813 177.418 20.1153 177.707 20.666C178.006 21.2167 178.155 21.842 178.155 22.542C178.155 23.242 178.006 23.8673 177.707 24.418C177.418 24.9593 177.017 25.3887 176.503 25.706C175.99 26.014 175.393 26.168 174.711 26.168ZM174.459 24.88C175.094 24.88 175.617 24.6653 176.027 24.236C176.438 23.7973 176.643 23.228 176.643 22.528C176.643 22.0707 176.55 21.6647 176.363 21.31C176.177 20.9553 175.92 20.68 175.593 20.484C175.267 20.2787 174.889 20.176 174.459 20.176C173.825 20.176 173.302 20.3953 172.891 20.834C172.49 21.2727 172.289 21.8373 172.289 22.528C172.289 23.228 172.49 23.7973 172.891 24.236C173.302 24.6653 173.825 24.88 174.459 24.88ZM179.76 26V19.056H181.244V26H179.76ZM183.124 26V19.056H184.44L184.566 20.036C184.79 19.6813 185.084 19.4013 185.448 19.196C185.821 18.9907 186.25 18.888 186.736 18.888C187.837 18.888 188.602 19.322 189.032 20.19C189.284 19.7887 189.62 19.4713 190.04 19.238C190.469 19.0047 190.931 18.888 191.426 18.888C192.294 18.888 192.975 19.1493 193.47 19.672C193.964 20.1947 194.212 20.974 194.212 22.01V26H192.728V22.164C192.728 20.82 192.214 20.148 191.188 20.148C190.665 20.148 190.236 20.344 189.9 20.736C189.573 21.128 189.41 21.688 189.41 22.416V26H187.926V22.164C187.926 20.82 187.408 20.148 186.372 20.148C185.858 20.148 185.434 20.344 185.098 20.736C184.771 21.128 184.608 21.688 184.608 22.416V26H183.124Z" fill="#343F56"/>
<path d="M118.16 19.62C118.13 19.62 118.11 19.62 118.08 19.62C118.03 19.61 117.96 19.61 117.9 19.62C115 19.53 112.81 17.25 112.81 14.44C112.81 11.58 115.14 9.25 118 9.25C120.86 9.25 123.19 11.58 123.19 14.44C123.18 17.25 120.98 19.53 118.19 19.62C118.18 19.62 118.17 19.62 118.16 19.62ZM118 10.75C115.97 10.75 114.31 12.41 114.31 14.44C114.31 16.44 115.87 18.05 117.86 18.12C117.91 18.11 118.05 18.11 118.18 18.12C120.14 18.03 121.68 16.42 121.69 14.44C121.69 12.41 120.03 10.75 118 10.75Z" fill="#343F56"/>
<path d="M118.17 30.55C116.21 30.55 114.24 30.05 112.75 29.05C111.36 28.13 110.6 26.87 110.6 25.5C110.6 24.13 111.36 22.86 112.75 21.93C115.75 19.94 120.61 19.94 123.59 21.93C124.97 22.85 125.74 24.11 125.74 25.48C125.74 26.85 124.98 28.12 123.59 29.05C122.09 30.05 120.13 30.55 118.17 30.55ZM113.58 23.19C112.62 23.83 112.1 24.65 112.1 25.51C112.1 26.36 112.63 27.18 113.58 27.81C116.07 29.48 120.27 29.48 122.76 27.81C123.72 27.17 124.24 26.35 124.24 25.49C124.24 24.64 123.71 23.82 122.76 23.19C120.27 21.53 116.07 21.53 113.58 23.19Z" fill="#343F56"/>
<path d="M33.002 27V18.88L31.42 19.244V18.152L33.59 17.2H34.542V27H33.002ZM36.3371 27V25.936C36.9717 25.432 37.5784 24.9233 38.1571 24.41C38.7357 23.8967 39.2491 23.3927 39.6971 22.898C40.1544 22.394 40.5137 21.904 40.7751 21.428C41.0364 20.9427 41.1671 20.476 41.1671 20.028C41.1671 19.7293 41.1157 19.4493 41.0131 19.188C40.9104 18.9173 40.7424 18.7027 40.5091 18.544C40.2757 18.376 39.9631 18.292 39.5711 18.292C38.9831 18.292 38.5397 18.4787 38.2411 18.852C37.9517 19.2253 37.8117 19.6733 37.8211 20.196H36.3791C36.3884 19.5053 36.5331 18.9267 36.8131 18.46C37.1024 17.9933 37.4851 17.6387 37.9611 17.396C38.4464 17.1533 38.9924 17.032 39.5991 17.032C40.5231 17.032 41.2604 17.2933 41.8111 17.816C42.3711 18.3293 42.6511 19.048 42.6511 19.972C42.6511 20.5227 42.5157 21.0687 42.2451 21.61C41.9837 22.1513 41.6384 22.674 41.2091 23.178C40.7891 23.6727 40.3364 24.1393 39.8511 24.578C39.3657 25.0167 38.9037 25.4133 38.4651 25.768H42.9451V27H36.3371ZM48.3554 27.168C47.4687 27.168 46.7034 26.958 46.0594 26.538C45.4247 26.1087 44.9347 25.516 44.5894 24.76C44.2534 23.9947 44.0854 23.108 44.0854 22.1C44.0854 21.092 44.2534 20.21 44.5894 19.454C44.9347 18.6887 45.4247 18.096 46.0594 17.676C46.7034 17.2467 47.4687 17.032 48.3554 17.032C49.2421 17.032 50.0027 17.2467 50.6374 17.676C51.2721 18.096 51.7574 18.6887 52.0934 19.454C52.4387 20.21 52.6114 21.092 52.6114 22.1C52.6114 23.108 52.4387 23.9947 52.0934 24.76C51.7574 25.516 51.2721 26.1087 50.6374 26.538C50.0027 26.958 49.2421 27.168 48.3554 27.168ZM48.3554 25.838C48.8874 25.838 49.3587 25.6887 49.7694 25.39C50.1894 25.0913 50.5161 24.662 50.7494 24.102C50.9827 23.542 51.0994 22.8747 51.0994 22.1C51.0994 21.3253 50.9827 20.658 50.7494 20.098C50.5161 19.538 50.1894 19.1087 49.7694 18.81C49.3587 18.5113 48.8874 18.362 48.3554 18.362C47.8141 18.362 47.3381 18.5113 46.9274 18.81C46.5167 19.1087 46.1947 19.538 45.9614 20.098C45.7281 20.658 45.6114 21.3253 45.6114 22.1C45.6114 22.8747 45.7281 23.542 45.9614 24.102C46.1947 24.662 46.5167 25.0913 46.9274 25.39C47.3381 25.6887 47.8141 25.838 48.3554 25.838ZM58.1855 27.168C57.2988 27.168 56.5335 26.958 55.8895 26.538C55.2548 26.1087 54.7648 25.516 54.4195 24.76C54.0835 23.9947 53.9155 23.108 53.9155 22.1C53.9155 21.092 54.0835 20.21 54.4195 19.454C54.7648 18.6887 55.2548 18.096 55.8895 17.676C56.5335 17.2467 57.2988 17.032 58.1855 17.032C59.0722 17.032 59.8328 17.2467 60.4675 17.676C61.1022 18.096 61.5875 18.6887 61.9235 19.454C62.2688 20.21 62.4415 21.092 62.4415 22.1C62.4415 23.108 62.2688 23.9947 61.9235 24.76C61.5875 25.516 61.1022 26.1087 60.4675 26.538C59.8328 26.958 59.0722 27.168 58.1855 27.168ZM58.1855 25.838C58.7175 25.838 59.1888 25.6887 59.5995 25.39C60.0195 25.0913 60.3462 24.662 60.5795 24.102C60.8128 23.542 60.9295 22.8747 60.9295 22.1C60.9295 21.3253 60.8128 20.658 60.5795 20.098C60.3462 19.538 60.0195 19.1087 59.5995 18.81C59.1888 18.5113 58.7175 18.362 58.1855 18.362C57.6442 18.362 57.1682 18.5113 56.7575 18.81C56.3468 19.1087 56.0248 19.538 55.7915 20.098C55.5582 20.658 55.4415 21.3253 55.4415 22.1C55.4415 22.8747 55.5582 23.542 55.7915 24.102C56.0248 24.662 56.3468 25.0913 56.7575 25.39C57.1682 25.6887 57.6442 25.838 58.1855 25.838ZM64.0396 27V20.056H65.3556L65.4816 21.036C65.7056 20.6813 65.9996 20.4013 66.3636 20.196C66.7369 19.9907 67.1662 19.888 67.6516 19.888C68.7529 19.888 69.5182 20.322 69.9476 21.19C70.1996 20.7887 70.5356 20.4713 70.9556 20.238C71.3849 20.0047 71.8469 19.888 72.3416 19.888C73.2096 19.888 73.8909 20.1493 74.3856 20.672C74.8802 21.1947 75.1276 21.974 75.1276 23.01V27H73.6436V23.164C73.6436 21.82 73.1302 21.148 72.1036 21.148C71.5809 21.148 71.1516 21.344 70.8156 21.736C70.4889 22.128 70.3256 22.688 70.3256 23.416V27H68.8416V23.164C68.8416 21.82 68.3236 21.148 67.2876 21.148C66.7742 21.148 66.3496 21.344 66.0136 21.736C65.6869 22.128 65.5236 22.688 65.5236 23.416V27H64.0396Z" fill="#343F56"/>
<path d="M16.4904 30.7503H7.50042C5.78042 30.7503 4.49042 30.2903 3.69042 29.3803C2.89043 28.4703 2.58042 27.1503 2.79042 25.4403L3.69042 17.9403C3.95042 15.7303 4.51043 13.7503 8.41042 13.7503H15.6104C19.5004 13.7503 20.0604 15.7303 20.3304 17.9403L21.2304 25.4403C21.4304 27.1503 21.1304 28.4803 20.3304 29.3803C19.5004 30.2903 18.2204 30.7503 16.4904 30.7503ZM8.40041 15.2503C5.52041 15.2503 5.38042 16.3903 5.17042 18.1103L4.27043 25.6103C4.12043 26.8803 4.30042 27.8103 4.81042 28.3803C5.32042 28.9503 6.22042 29.2403 7.50042 29.2403H16.4904C17.7704 29.2403 18.6704 28.9503 19.1804 28.3803C19.6904 27.8103 19.8704 26.8803 19.7204 25.6103L18.8204 18.1103C18.6104 16.3803 18.4804 15.2503 15.5904 15.2503H8.40041Z" fill="#343F56"/>
<path d="M16 16.7495C15.59 16.7495 15.25 16.4095 15.25 15.9995V12.4995C15.25 11.4195 14.58 10.7495 13.5 10.7495H10.5C9.42 10.7495 8.75 11.4195 8.75 12.4995V15.9995C8.75 16.4095 8.41 16.7495 8 16.7495C7.59 16.7495 7.25 16.4095 7.25 15.9995V12.4995C7.25 10.5895 8.59 9.24948 10.5 9.24948H13.5C15.41 9.24948 16.75 10.5895 16.75 12.4995V15.9995C16.75 16.4095 16.41 16.7495 16 16.7495Z" fill="#343F56"/>
<path d="M20.41 25.7806H8C7.59 25.7806 7.25 25.4404 7.25 25.0302C7.25 24.62 7.59 24.2799 8 24.2799H20.41C20.82 24.2799 21.16 24.62 21.16 25.0302C21.16 25.4404 20.82 25.7806 20.41 25.7806Z" fill="#343F56"/>
<circle cx="21" cy="9" r="8.5" fill="#FB9300" stroke="white"/>
<path d="M23.833 11.9688V13H18.5908V12.1138L21.1367 9.33691C21.416 9.02181 21.6362 8.74967 21.7974 8.52051C21.9585 8.29134 22.0713 8.08545 22.1357 7.90283C22.2038 7.71663 22.2378 7.53581 22.2378 7.36035C22.2378 7.11328 22.1912 6.89665 22.0981 6.71045C22.0086 6.52067 21.8761 6.37207 21.7007 6.26465C21.5252 6.15365 21.3122 6.09814 21.0615 6.09814C20.7715 6.09814 20.528 6.16081 20.3311 6.28613C20.1341 6.41146 19.9855 6.58512 19.8853 6.80713C19.785 7.02555 19.7349 7.2762 19.7349 7.55908H18.4404C18.4404 7.10433 18.5443 6.68896 18.752 6.31299C18.9596 5.93343 19.2604 5.63265 19.6543 5.41064C20.0482 5.18506 20.5226 5.07227 21.0776 5.07227C21.6004 5.07227 22.0444 5.15999 22.4097 5.33545C22.7749 5.5109 23.0524 5.75977 23.2422 6.08203C23.4355 6.4043 23.5322 6.78564 23.5322 7.22607C23.5322 7.46956 23.4928 7.71126 23.4141 7.95117C23.3353 8.19108 23.2225 8.43099 23.0757 8.6709C22.9325 8.90723 22.7624 9.14535 22.5654 9.38525C22.3685 9.62158 22.1519 9.86149 21.9155 10.105L20.2236 11.9688H23.833Z" fill="white"/>
</svg>
