<svg width="135" height="19" viewBox="0 0 135 19" fill="none" xmlns="http://www.w3.org/2000/svg">
<path d="M7.6084 10.4521V11.7646H0.430664L0.375977 10.7734L4.66895 4.04688H5.98828L4.55957 6.49414L2.0918 10.4521H7.6084ZM6.36426 4.04688V14H4.7168V4.04688H6.36426ZM8.87305 13.1797C8.87305 12.9245 8.95964 12.7103 9.13281 12.5371C9.30599 12.3594 9.54069 12.2705 9.83691 12.2705C10.1377 12.2705 10.3724 12.3594 10.541 12.5371C10.7142 12.7103 10.8008 12.9245 10.8008 13.1797C10.8008 13.4349 10.7142 13.6491 10.541 13.8223C10.3724 13.9954 10.1377 14.082 9.83691 14.082C9.54069 14.082 9.30599 13.9954 9.13281 13.8223C8.95964 13.6491 8.87305 13.4349 8.87305 13.1797ZM19.2773 12.6875V14H12.6055V12.8721L15.8457 9.33789C16.2012 8.93685 16.4814 8.59049 16.6865 8.29883C16.8916 8.00716 17.0352 7.74512 17.1172 7.5127C17.2038 7.27572 17.2471 7.04557 17.2471 6.82227C17.2471 6.50781 17.1878 6.2321 17.0693 5.99512C16.9554 5.75358 16.7868 5.56445 16.5635 5.42773C16.3402 5.28646 16.069 5.21582 15.75 5.21582C15.3809 5.21582 15.071 5.29557 14.8203 5.45508C14.5697 5.61458 14.3805 5.83561 14.2529 6.11816C14.1253 6.39616 14.0615 6.71517 14.0615 7.0752H12.4141C12.4141 6.49642 12.5462 5.96777 12.8105 5.48926C13.0749 5.00618 13.4577 4.62337 13.959 4.34082C14.4603 4.05371 15.0641 3.91016 15.7705 3.91016C16.4359 3.91016 17.001 4.02181 17.4658 4.24512C17.9307 4.46842 18.2839 4.78516 18.5254 5.19531C18.7715 5.60547 18.8945 6.09082 18.8945 6.65137C18.8945 6.96126 18.8444 7.26888 18.7441 7.57422C18.6439 7.87956 18.5003 8.1849 18.3135 8.49023C18.1312 8.79102 17.9147 9.09408 17.6641 9.39941C17.4134 9.7002 17.1377 10.0055 16.8369 10.3154L14.6836 12.6875H19.2773ZM24.917 4.04688L20.7607 14.8545H20.0225L24.1787 4.04688H24.917ZM27.5146 9.07812L26.8721 8.89355L27.3574 4.04688H32.334V4.8125H28.0547L27.7061 8.16211C27.8792 8.03906 28.1299 7.91829 28.458 7.7998C28.7907 7.67676 29.1644 7.61523 29.5791 7.61523C30.0212 7.61523 30.4222 7.69043 30.7822 7.84082C31.1468 7.98665 31.459 8.20085 31.7188 8.4834C31.9785 8.76139 32.179 9.09863 32.3203 9.49512C32.4616 9.88704 32.5322 10.3314 32.5322 10.8281C32.5322 11.3066 32.473 11.7464 32.3545 12.1475C32.236 12.5485 32.056 12.8994 31.8145 13.2002C31.5729 13.4964 31.2653 13.7266 30.8916 13.8906C30.5179 14.0547 30.0736 14.1367 29.5586 14.1367C29.1621 14.1367 28.7884 14.082 28.4375 13.9727C28.0911 13.8587 27.7812 13.6878 27.5078 13.46C27.2344 13.2321 27.0111 12.945 26.8379 12.5986C26.6693 12.2523 26.5645 11.8467 26.5234 11.3818H27.3096C27.3643 11.8285 27.485 12.2044 27.6719 12.5098C27.8587 12.8151 28.1094 13.0452 28.4238 13.2002C28.7428 13.3551 29.1211 13.4326 29.5586 13.4326C29.9141 13.4326 30.224 13.3757 30.4883 13.2617C30.7572 13.1478 30.9805 12.9814 31.1582 12.7627C31.3405 12.5394 31.4772 12.2682 31.5684 11.9492C31.6641 11.6257 31.7119 11.2565 31.7119 10.8418C31.7119 10.4863 31.6618 10.1605 31.5615 9.86426C31.4613 9.56348 31.3132 9.30143 31.1172 9.07812C30.9258 8.85026 30.6888 8.6748 30.4062 8.55176C30.1237 8.42871 29.8001 8.36719 29.4355 8.36719C28.9616 8.36719 28.5833 8.43099 28.3008 8.55859C28.0228 8.6862 27.7607 8.85938 27.5146 9.07812Z" fill="#2D2D2D"/>
<path d="M47.9744 1.84727L49.5518 5.44492C49.6111 5.58032 49.7057 5.69731 49.8256 5.78367C49.9456 5.87004 50.0866 5.92263 50.2338 5.93594L54.0764 6.28047C54.5111 6.34375 54.6846 6.87695 54.3693 7.18398L51.4748 9.61562C51.2404 9.8125 51.1338 10.1219 51.1982 10.4207L52.0397 14.3594C52.1135 14.7918 51.66 15.1223 51.2709 14.9172L47.917 12.9531C47.7905 12.8789 47.6465 12.8397 47.4998 12.8397C47.3531 12.8397 47.2091 12.8789 47.0826 12.9531L43.7287 14.916C43.3408 15.1199 42.8861 14.7906 42.96 14.3582L43.8014 10.4195C43.8647 10.1207 43.7592 9.81133 43.5248 9.61445L40.6291 7.18516C40.315 6.8793 40.4885 6.34492 40.9221 6.28164L44.7647 5.93711C44.9119 5.9238 45.0528 5.87122 45.1728 5.78485C45.2928 5.69848 45.3874 5.58149 45.4467 5.44609L47.024 1.84844C47.2197 1.45469 47.7799 1.45469 47.9744 1.84727Z" fill="#FDD835"/>
<path d="M87.9744 1.84727L89.5518 5.44492C89.6111 5.58032 89.7057 5.69731 89.8256 5.78367C89.9456 5.87004 90.0866 5.92263 90.2338 5.93594L94.0764 6.28047C94.5111 6.34375 94.6846 6.87695 94.3693 7.18398L91.4748 9.61562C91.2404 9.8125 91.1338 10.1219 91.1982 10.4207L92.0397 14.3594C92.1135 14.7918 91.66 15.1223 91.2709 14.9172L87.917 12.9531C87.7905 12.8789 87.6465 12.8397 87.4998 12.8397C87.3531 12.8397 87.2091 12.8789 87.0826 12.9531L83.7287 14.916C83.3408 15.1199 82.8861 14.7906 82.96 14.3582L83.8014 10.4195C83.8647 10.1207 83.7592 9.81133 83.5248 9.61445L80.6291 7.18516C80.315 6.8793 80.4885 6.34492 80.9221 6.28164L84.7647 5.93711C84.9119 5.9238 85.0528 5.87122 85.1728 5.78485C85.2928 5.69848 85.3874 5.58149 85.4467 5.44609L87.024 1.84844C87.2197 1.45469 87.7799 1.45469 87.9744 1.84727Z" fill="#FDD835"/>
<path d="M67.9744 1.84727L69.5518 5.44492C69.6111 5.58032 69.7057 5.69731 69.8256 5.78367C69.9456 5.87004 70.0866 5.92263 70.2338 5.93594L74.0764 6.28047C74.5111 6.34375 74.6846 6.87695 74.3693 7.18398L71.4748 9.61562C71.2404 9.8125 71.1338 10.1219 71.1982 10.4207L72.0397 14.3594C72.1135 14.7918 71.66 15.1223 71.2709 14.9172L67.917 12.9531C67.7905 12.8789 67.6465 12.8397 67.4998 12.8397C67.3531 12.8397 67.2091 12.8789 67.0826 12.9531L63.7287 14.916C63.3408 15.1199 62.8861 14.7906 62.96 14.3582L63.8014 10.4195C63.8647 10.1207 63.7592 9.81133 63.5248 9.61445L60.6291 7.18516C60.315 6.8793 60.4885 6.34492 60.9221 6.28164L64.7647 5.93711C64.9119 5.9238 65.0528 5.87122 65.1728 5.78485C65.2928 5.69848 65.3874 5.58149 65.4467 5.44609L67.024 1.84844C67.2197 1.45469 67.7799 1.45469 67.9744 1.84727Z" fill="#FDD835"/>
<path d="M107.974 1.84727L109.552 5.44492C109.611 5.58032 109.706 5.69731 109.826 5.78367C109.946 5.87004 110.087 5.92263 110.234 5.93594L114.076 6.28047C114.511 6.34375 114.685 6.87695 114.369 7.18398L111.475 9.61562C111.24 9.8125 111.134 10.1219 111.198 10.4207L112.04 14.3594C112.113 14.7918 111.66 15.1223 111.271 14.9172L107.917 12.9531C107.791 12.8789 107.646 12.8397 107.5 12.8397C107.353 12.8397 107.209 12.8789 107.083 12.9531L103.729 14.916C103.341 15.1199 102.886 14.7906 102.96 14.3582L103.801 10.4195C103.865 10.1207 103.759 9.81133 103.525 9.61445L100.629 7.18516C100.315 6.8793 100.488 6.34492 100.922 6.28164L104.765 5.93711C104.912 5.9238 105.053 5.87122 105.173 5.78485C105.293 5.69848 105.387 5.58149 105.447 5.44609L107.024 1.84844C107.22 1.45469 107.78 1.45469 107.974 1.84727Z" fill="#FDD835"/>
<path d="M127.974 1.84727L129.552 5.44492C129.611 5.58032 129.706 5.69731 129.826 5.78367C129.946 5.87004 130.087 5.92263 130.234 5.93594L134.076 6.28047C134.511 6.34375 134.685 6.87695 134.369 7.18398L131.475 9.61562C131.24 9.8125 131.134 10.1219 131.198 10.4207L132.04 14.3594C132.113 14.7918 131.66 15.1223 131.271 14.9172L127.917 12.9531C127.791 12.8789 127.646 12.8397 127.5 12.8397C127.353 12.8397 127.209 12.8789 127.083 12.9531L123.729 14.916C123.341 15.1199 122.886 14.7906 122.96 14.3582L123.801 10.4195C123.865 10.1207 123.759 9.81133 123.525 9.61445L120.629 7.18516C120.315 6.8793 120.488 6.34492 120.922 6.28164L124.765 5.93711C124.912 5.9238 125.053 5.87122 125.173 5.78485C125.293 5.69848 125.387 5.58149 125.447 5.44609L127.024 1.84844C127.22 1.45469 127.78 1.45469 127.974 1.84727Z" fill="#EDEDED"/>
</svg>
