<svg width="142" height="42" viewBox="0 0 142 42" fill="none" xmlns="http://www.w3.org/2000/svg">
<path d="M26.618 34.3687V41.4389H6.02407V34.3687H26.618ZM9.13418 0.589178V41.4389H0V0.589178H9.13418Z" fill="white"/>
<path d="M63.2668 20.1162V21.9399C63.2668 25.0448 62.8371 27.8317 61.9779 30.3006C61.1373 32.7695 59.9325 34.8737 58.3635 36.6132C56.8131 38.3527 54.9638 39.69 52.8157 40.6253C50.6863 41.5418 48.3233 42 45.7269 42C43.1305 42 40.7582 41.5418 38.6101 40.6253C36.462 39.69 34.5941 38.3527 33.0063 36.6132C31.4373 34.8737 30.2231 32.7695 29.3639 30.3006C28.5046 27.8317 28.075 25.0448 28.075 21.9399V20.1162C28.075 17.0114 28.5046 14.2244 29.3639 11.7555C30.2231 9.26787 31.4279 7.15431 32.9783 5.41483C34.5474 3.67535 36.4059 2.34736 38.5541 1.43086C40.7022 0.495658 43.0745 0.0280561 45.6709 0.0280561C48.2673 0.0280561 50.6396 0.495658 52.7877 1.43086C54.9358 2.34736 56.7851 3.67535 58.3354 5.41483C59.9045 7.15431 61.1187 9.26787 61.9779 11.7555C62.8371 14.2244 63.2668 17.0114 63.2668 20.1162ZM54.0485 21.9399V20.0601C54.0485 17.984 53.8617 16.151 53.4882 14.5611C53.1146 12.9526 52.5729 11.6059 51.8631 10.521C51.1532 9.43621 50.2753 8.62258 49.2293 8.08016C48.1832 7.51904 46.9971 7.23848 45.6709 7.23848C44.2886 7.23848 43.0838 7.51904 42.0564 8.08016C41.0291 8.62258 40.1605 9.43621 39.4507 10.521C38.7595 11.6059 38.2272 12.9526 37.8536 14.5611C37.4987 16.151 37.3212 17.984 37.3212 20.0601V21.9399C37.3212 23.9973 37.4987 25.8303 37.8536 27.4389C38.2272 29.0287 38.7689 30.3754 39.4787 31.479C40.1885 32.5825 41.0571 33.4148 42.0844 33.976C43.1305 34.5371 44.3446 34.8176 45.7269 34.8176C47.0531 34.8176 48.2299 34.5371 49.2573 33.976C50.3033 33.4148 51.1813 32.5825 51.8911 31.479C52.6009 30.3754 53.1333 29.0287 53.4882 27.4389C53.8617 25.8303 54.0485 23.9973 54.0485 21.9399Z" fill="white"/>
<path d="M101.737 19.8637V36.3327C101.064 37.0995 100.037 37.9225 98.6547 38.8016C97.2911 39.6807 95.5446 40.4382 93.4152 41.0742C91.2857 41.6914 88.7453 42 85.794 42C83.1229 42 80.6946 41.5698 78.5091 40.7094C76.3236 39.8303 74.4463 38.5491 72.8773 36.8657C71.3082 35.1637 70.094 33.0875 69.2348 30.6373C68.3942 28.187 67.974 25.3814 67.974 22.2204V19.8076C67.974 16.6466 68.3942 13.841 69.2348 11.3908C70.0754 8.94055 71.2615 6.87375 72.7932 5.19038C74.3249 3.48831 76.1461 2.19773 78.2569 1.31864C80.3677 0.439546 82.7026 0 85.2616 0C88.9041 0 91.8835 0.589178 94.1997 1.76754C96.5159 2.92719 98.2718 4.53574 99.4672 6.59319C100.681 8.65063 101.429 11.0167 101.709 13.6914H92.9108C92.724 12.326 92.3504 11.1476 91.7901 10.1563C91.2484 9.165 90.4732 8.40748 89.4645 7.88377C88.4558 7.34135 87.1483 7.07014 85.5418 7.07014C84.253 7.07014 83.0855 7.34135 82.0395 7.88377C81.0121 8.40748 80.1435 9.20241 79.4337 10.2685C78.7239 11.3347 78.1822 12.6627 77.8086 14.2525C77.435 15.8236 77.2482 17.6566 77.2482 19.7515V22.2204C77.2482 24.3153 77.435 26.1576 77.8086 27.7475C78.2009 29.3373 78.7706 30.6653 79.5178 31.7315C80.2649 32.7789 81.2082 33.5738 82.3477 34.1162C83.5058 34.6587 84.8507 34.9299 86.3824 34.9299C87.5779 34.9299 88.5866 34.8363 89.4084 34.6493C90.2303 34.4436 90.9028 34.191 91.4258 33.8918C91.9488 33.5738 92.3411 33.2839 92.6026 33.022V26.2325H85.3457V19.8637H101.737Z" fill="white"/>
<path d="M142 20.1162V21.9399C142 25.0448 141.57 27.8317 140.711 30.3006C139.871 32.7695 138.666 34.8737 137.097 36.6132C135.546 38.3527 133.697 39.69 131.549 40.6253C129.419 41.5418 127.057 42 124.46 42C121.864 42 119.491 41.5418 117.343 40.6253C115.195 39.69 113.327 38.3527 111.74 36.6132C110.17 34.8737 108.956 32.7695 108.097 30.3006C107.238 27.8317 106.808 25.0448 106.808 21.9399V20.1162C106.808 17.0114 107.238 14.2244 108.097 11.7555C108.956 9.26787 110.161 7.15431 111.712 5.41483C113.281 3.67535 115.139 2.34736 117.287 1.43086C119.435 0.495658 121.808 0.0280561 124.404 0.0280561C127.001 0.0280561 129.373 0.495658 131.521 1.43086C133.669 2.34736 135.518 3.67535 137.069 5.41483C138.638 7.15431 139.852 9.26787 140.711 11.7555C141.57 14.2244 142 17.0114 142 20.1162ZM132.782 21.9399V20.0601C132.782 17.984 132.595 16.151 132.221 14.5611C131.848 12.9526 131.306 11.6059 130.596 10.521C129.886 9.43621 129.009 8.62258 127.963 8.08016C126.916 7.51904 125.73 7.23848 124.404 7.23848C123.022 7.23848 121.817 7.51904 120.79 8.08016C119.762 8.62258 118.894 9.43621 118.184 10.521C117.493 11.6059 116.96 12.9526 116.587 14.5611C116.232 16.151 116.054 17.984 116.054 20.0601V21.9399C116.054 23.9973 116.232 25.8303 116.587 27.4389C116.96 29.0287 117.502 30.3754 118.212 31.479C118.922 32.5825 119.79 33.4148 120.818 33.976C121.864 34.5371 123.078 34.8176 124.46 34.8176C125.786 34.8176 126.963 34.5371 127.991 33.976C129.037 33.4148 129.915 32.5825 130.624 31.479C131.334 30.3754 131.866 29.0287 132.221 27.4389C132.595 25.8303 132.782 23.9973 132.782 21.9399Z" fill="white"/>
</svg>
