<svg width="24" height="24" viewBox="0 0 24 24" fill="none" xmlns="http://www.w3.org/2000/svg">
<path d="M7.0001 13L14.5901 13L11.2901 16.29C11.1018 16.4783 10.996 16.7337 10.996 17C10.996 17.2663 11.1018 17.5217 11.2901 17.71C11.4784 17.8983 11.7338 18.0041 12.0001 18.0041C12.2664 18.0041 12.5218 17.8983 12.7101 17.71L17.7101 12.71C17.8011 12.6149 17.8725 12.5027 17.9201 12.38C18.0201 12.1365 18.0201 11.8635 17.9201 11.62C17.8725 11.4972 17.8011 11.3851 17.7101 11.29L12.7101 6.29C12.6171 6.19627 12.5065 6.12187 12.3847 6.07111C12.2628 6.02034 12.1321 5.9942 12.0001 5.9942C11.8681 5.9942 11.7374 6.02034 11.6155 6.07111C11.4937 6.12187 11.3831 6.19627 11.2901 6.29C11.1964 6.38296 11.122 6.49356 11.0712 6.61542C11.0204 6.73728 10.9943 6.86799 10.9943 7C10.9943 7.13201 11.0204 7.26271 11.0712 7.38457C11.122 7.50643 11.1964 7.61703 11.2901 7.71L14.5901 11L7.0001 11C6.73489 11 6.48053 11.1054 6.293 11.2929C6.10546 11.4804 6.0001 11.7348 6.0001 12C6.0001 12.2652 6.10546 12.5196 6.293 12.7071C6.48053 12.8946 6.73489 13 7.0001 13Z" fill="#F58634"/>
</svg>
