<svg width="20" height="20" viewBox="0 0 20 20" fill="none" xmlns="http://www.w3.org/2000/svg">
<path d="M18.3332 4.83326C17.7068 5.10501 17.0444 5.28465 16.3665 5.3666C17.0816 4.93936 17.6176 4.26725 17.8748 3.47493C17.2028 3.87498 16.4671 4.15684 15.6998 4.30826C15.187 3.75207 14.504 3.38184 13.758 3.25564C13.012 3.12944 12.2453 3.2544 11.578 3.61092C10.9107 3.96745 10.3806 4.53537 10.0709 5.22563C9.76113 5.91588 9.68925 6.68942 9.8665 7.42493C8.50769 7.3562 7.17854 7.00239 5.96538 6.38648C4.75223 5.77057 3.68221 4.90634 2.82484 3.84993C2.52412 4.37507 2.3661 4.96978 2.3665 5.57493C2.36544 6.13692 2.50335 6.69044 2.76797 7.18623C3.03258 7.68202 3.41569 8.10469 3.88317 8.4166C3.33982 8.40181 2.80808 8.25601 2.33317 7.9916V8.03326C2.33724 8.82067 2.61317 9.58251 3.11427 10.1899C3.61537 10.7973 4.31088 11.213 5.08317 11.3666C4.78588 11.4571 4.47723 11.5048 4.1665 11.5083C3.95141 11.5058 3.73686 11.4862 3.52484 11.4499C3.74476 12.1273 4.17036 12.7192 4.7424 13.1434C5.31444 13.5676 6.00448 13.8029 6.7165 13.8166C5.51417 14.7627 4.02974 15.279 2.49984 15.2833C2.22128 15.2842 1.94295 15.2675 1.6665 15.2333C3.22853 16.2418 5.04885 16.7772 6.90817 16.7749C8.19125 16.7883 9.46412 16.5458 10.6524 16.0617C11.8408 15.5775 12.9207 14.8615 13.8292 13.9553C14.7377 13.0492 15.4565 11.9711 15.9436 10.784C16.4308 9.59695 16.6765 8.3247 16.6665 7.0416C16.6665 6.89993 16.6665 6.74993 16.6665 6.59993C17.3204 6.11227 17.8844 5.51445 18.3332 4.83326Z" fill="#95979C"/>
</svg>
