<svg width="26" height="24" viewBox="0 0 26 24" fill="none" xmlns="http://www.w3.org/2000/svg">
<g filter="url(#filter0_d_106_431)">
<path d="M21.3293 8.27845C21.3668 7.19892 21.1298 6.12746 20.6404 5.16357C20.3083 4.76806 19.8475 4.50116 19.3382 4.40936C17.2316 4.21895 15.1162 4.1409 13.0013 4.17556C10.894 4.13933 8.78627 4.21485 6.68706 4.40182C6.27203 4.47703 5.88796 4.67095 5.5817 4.95994C4.90031 5.58593 4.8246 6.6569 4.74889 7.56195C4.63904 9.1892 4.63904 10.822 4.74889 12.4492C4.77079 12.9586 4.84693 13.4643 4.97602 13.9576C5.0673 14.3386 5.252 14.691 5.51356 14.9834C5.8219 15.2876 6.21492 15.4926 6.64163 15.5716C8.27387 15.7723 9.91852 15.8555 11.5628 15.8205C14.2126 15.8582 16.5369 15.8205 19.2852 15.6093C19.7224 15.5352 20.1264 15.3299 20.4435 15.0211C20.6555 14.8098 20.8138 14.5513 20.9054 14.2669C21.1761 13.4392 21.3091 12.573 21.299 11.7025C21.3293 11.2802 21.3293 8.73097 21.3293 8.27845ZM11.2902 12.1551V7.48653L15.7722 9.83212C14.5155 10.526 12.8574 11.3104 11.2902 12.1551Z" fill="#95979C"/>
</g>
<defs>
<filter id="filter0_d_106_431" x="-1" y="0" width="28" height="28" filterUnits="userSpaceOnUse" color-interpolation-filters="sRGB">
<feFlood flood-opacity="0" result="BackgroundImageFix"/>
<feColorMatrix in="SourceAlpha" type="matrix" values="0 0 0 0 0 0 0 0 0 0 0 0 0 0 0 0 0 0 127 0" result="hardAlpha"/>
<feOffset dy="4"/>
<feGaussianBlur stdDeviation="2"/>
<feComposite in2="hardAlpha" operator="out"/>
<feColorMatrix type="matrix" values="0 0 0 0 0 0 0 0 0 0 0 0 0 0 0 0 0 0 0.25 0"/>
<feBlend mode="normal" in2="BackgroundImageFix" result="effect1_dropShadow_106_431"/>
<feBlend mode="normal" in="SourceGraphic" in2="effect1_dropShadow_106_431" result="shape"/>
</filter>
</defs>
</svg>
